<?xml version="1.0" encoding="UTF-8"?>
<svg id="_レイヤー_2" data-name="レイヤー 2" xmlns="http://www.w3.org/2000/svg" viewBox="0 0 661.41 224">
  <defs>
    <style>
      .cls-1 {
        fill: #9e6648;
      }

      .cls-1, .cls-2 {
        stroke-width: 0px;
      }

      .cls-3 {
        fill: #c1272d;
        stroke: #fff;
        stroke-linecap: round;
        stroke-linejoin: round;
        stroke-width: 4px;
      }

      .cls-2 {
        fill: #fff;
      }
    </style>
  </defs>
  <g id="_レイヤー_1-2" data-name="レイヤー 1">
    <g>
      <path class="cls-3" d="M2,222h657.41s-99.22-185.91-99.22-185.91c-11.2-20.98-33.05-34.09-56.83-34.09H2s0,220,0,220Z"/>
      <g>
        <circle class="cls-2" cx="508.14" cy="154.79" r="38.67"/>
        <g>
          <path class="cls-2" d="M90.1,191.33h-36.65l14.37-17.4c2.52-3.11,6.32-8.3,7.83-10.86,1.08-1.92,2.87-5.35,2.87-9.02,0-2-.72-4.07-1.87-5.27-.93-.96-2.52-1.52-4.38-1.52-2.08,0-3.45.8-4.38,1.92-1.29,1.6-2.01,4.47-2.01,6.55h-11.07c.36-4.63,2.01-9.9,4.96-13.33,2.3-2.71,6.39-5.51,13.22-5.51s10.71,3.19,12.43,5.03c2.59,2.87,4.46,7.26,4.46,12.77,0,4.71-1.29,8.14-3.59,11.74-2.08,3.19-4.6,5.91-7.69,9.18l-5.03,5.35h16.53v10.38Z"/>
          <path class="cls-2" d="M130.98,187.02c-2.8,3.03-6.97,5.51-12.86,5.51s-9.84-2.39-12.72-5.51c-4.67-5.11-6.9-13.17-6.9-22.27s2.23-17.32,6.9-22.35c2.87-3.11,6.97-5.51,12.72-5.51s10.06,2.48,12.86,5.51c4.67,5.03,6.9,13.17,6.9,22.35s-2.23,17.16-6.9,22.27ZM113.74,149.42c-3.52,3.83-4.02,11.5-4.02,15.25,0,4.15.65,11.66,4.02,15.33,1.29,1.36,2.59,2,4.45,2s3.16-.64,4.46-2c3.38-3.67,4.02-11.18,4.02-15.33,0-3.75-.5-11.42-4.02-15.25-1.29-1.36-2.59-2-4.46-2s-3.16.64-4.45,2Z"/>
          <path class="cls-2" d="M178.48,191.33h-36.65l14.37-17.4c2.52-3.11,6.32-8.3,7.83-10.86,1.08-1.92,2.87-5.35,2.87-9.02,0-2-.72-4.07-1.87-5.27-.93-.96-2.52-1.52-4.38-1.52-2.08,0-3.45.8-4.38,1.92-1.29,1.6-2.01,4.47-2.01,6.55h-11.07c.36-4.63,2.01-9.9,4.96-13.33,2.3-2.71,6.39-5.51,13.22-5.51s10.71,3.19,12.43,5.03c2.59,2.87,4.46,7.26,4.46,12.77,0,4.71-1.29,8.14-3.59,11.74-2.08,3.19-4.6,5.91-7.69,9.18l-5.03,5.35h16.53v10.38Z"/>
          <path class="cls-2" d="M219,171.53h5.75v9.74h-5.75v10.06h-10.63v-10.06h-23.42v-7.03l21.12-36.16h12.93v33.45ZM208.37,171.53v-20.68l-11.78,20.68h11.78Z"/>
          <path class="cls-2" d="M241.35,178.08c3.67,0,6.54,3.19,6.54,7.27s-2.87,7.26-6.54,7.26-6.54-3.19-6.54-7.26,2.87-7.27,6.54-7.27Z"/>
          <path class="cls-2" d="M299.19,166.39h7.24v12.27h-7.24v12.67h-13.4v-12.67h-29.51v-8.85l26.61-45.56h16.29v42.14ZM285.79,166.39v-26.05l-14.84,26.05h14.84Z"/>
          <path class="cls-2" d="M325.53,174.64c4.62,0,8.24,4.02,8.24,9.15s-3.62,9.15-8.24,9.15-8.24-4.02-8.24-9.15,3.62-9.15,8.24-9.15Z"/>
          <path class="cls-2" d="M346.25,144.37c.54-5.63,2.81-11.57,5.97-15.19,4.44-5.13,10.32-6.34,15.3-6.34,7.42,0,12.76,2.51,15.84,5.93,2.53,2.72,4.62,7.14,4.62,13.68,0,3.32-.54,6.24-2.44,9.15-1.27,2.01-2.81,3.32-4.53,4.22,2.53,1.01,5.25,2.92,6.88,5.43,1.81,2.72,2.81,6.94,2.81,10.56,0,5.13-1.81,10.96-6.07,15.29-5.16,5.23-11.04,5.83-15.93,5.83-5.88,0-12.31-1.01-17.65-6.94-3.44-3.92-6.06-9.86-6.7-16.59h13.94c.18,2.62,1.27,5.73,2.9,7.54,1.45,1.61,3.8,2.72,6.7,2.72,2.35,0,4.62-.8,6.06-2.31s2.44-4.12,2.44-6.84-1.18-5.13-2.62-6.44c-2.17-1.91-5.34-2.11-7.42-2.11h-1.09v-10.66h.81c.82,0,4.07-.1,6.07-1.91,1.27-1.21,2.26-3.32,2.26-6.03,0-2.31-.81-4.22-1.99-5.43-1.09-1.11-2.9-2.01-5.16-2.01s-4.25.91-5.43,2.21c-1.27,1.51-2.08,4.12-2.17,6.24h-13.4Z"/>
          <path class="cls-2" d="M442.01,185.9c-3.53,3.82-8.78,6.94-16.2,6.94s-12.4-3.02-16.02-6.94c-5.88-6.44-8.69-16.59-8.69-28.06s2.81-21.82,8.69-28.16c3.62-3.92,8.78-6.94,16.02-6.94s12.67,3.12,16.2,6.94c5.88,6.34,8.69,16.59,8.69,28.16s-2.81,21.62-8.69,28.06ZM420.29,138.53c-4.44,4.83-5.07,14.48-5.07,19.21,0,5.23.81,14.68,5.07,19.31,1.63,1.71,3.26,2.51,5.61,2.51s3.98-.8,5.61-2.51c4.25-4.63,5.07-14.08,5.07-19.31,0-4.73-.63-14.38-5.07-19.21-1.63-1.71-3.26-2.51-5.61-2.51s-3.98.8-5.61,2.51Z"/>
        </g>
        <g>
          <path class="cls-1" d="M490.27,153.34v16.79h-4.47v-16.79h-1.87v-4.56h1.87v-7.81h4.47v7.81h3.42v4.56h-3.42Z"/>
          <path class="cls-1" d="M501.18,148.78v12.22c0,1.27.05,2.74.82,3.85.59.86,1.64,1.47,2.92,1.47s2.33-.61,2.92-1.47c.78-1.12.82-2.59.82-3.85v-12.22h4.47v12.38c0,2.74-.27,5.02-2.05,7-1.74,1.93-4.11,2.64-6.25,2.64-1.96,0-4.34-.66-6.07-2.64-1.78-1.98-2.05-4.26-2.05-7v-12.38h4.47Z"/>
          <path class="cls-1" d="M536.01,165.26c-.82,1.62-2.01,3.04-3.24,3.91-1.55,1.12-3.61,1.62-5.66,1.62-2.56,0-4.66-.71-6.48-2.74-1.83-2.03-2.83-4.97-2.83-8.17s1.05-6.49,3.06-8.77c1.6-1.78,3.7-2.89,6.44-2.89,3.06,0,5.02,1.47,6.16,2.79,2.47,2.84,2.69,6.8,2.69,9.03v.61h-13.79c.09,1.52.68,3.25,1.64,4.31,1.05,1.17,2.33,1.37,3.42,1.37,1.23,0,2.15-.3,3.06-1.07.78-.66,1.37-1.52,1.78-2.33l3.74,2.33ZM531.58,156.59c-.18-1.17-.69-2.18-1.37-2.89-.59-.61-1.55-1.22-3.01-1.22-1.55,0-2.56.71-3.15,1.37-.64.66-1.14,1.67-1.37,2.74h8.9Z"/>
        </g>
      </g>
      <g>
        <path class="cls-2" d="M60.22,83.99l-3.86,14.95h-7.98l10.93-42.38h26.07l-9.14,35.42c-1.6,6.21-5.17,6.82-13.12,6.96.55-3.21.13-5.53-.8-8.26.85.14,3.05.34,3.87.34,1.64,0,2.49-.14,3.14-2.66l1.13-4.37h-10.24ZM93.26,46.38c2.75-2.73,6.44-6.96,8.68-10.1l8.19,2.39c.44.14.66.34.56.75-.19.75-1.13.96-1.75.96h-.48c-1.76,2.05-3.58,4.09-5.44,6.01h17.06l-1.87,7.23h-62.44l1.87-7.23h16.58c-.68-2.39-1.65-4.71-2.88-6.82l8.68-3.48c1.66,3.07,2.57,5.39,3.51,8.87l-3.99,1.43h13.72ZM73.18,73.41h-10.24l-1.14,4.44h10.24l1.14-4.44ZM75.86,63.04h-10.24l-1.09,4.23h10.24l1.09-4.23ZM98.65,57.24c.41,0,1.11.2.97.75-.11.41-.36.61-1.46,1.16l-7.11,27.57h-8.33l7.69-29.82,8.24.34ZM113.57,55.73c.6.07,1.19.14,1.02.82-.12.48-.54.75-1.96,1.23l-8.52,33.03c-.69,2.66-1.53,5.12-4.37,6.62-2.36,1.23-5.11,1.57-8.05,1.57-.89,0-1.37,0-2.78-.07.77-3,.8-6.01.21-8.74.92.14,3.72.41,4.67.41,1.5,0,2.31-.48,2.82-2.46l8.49-32.89,8.47.48Z"/>
        <path class="cls-2" d="M127.04,81.05l6.34,3.21c.42.2.51.68.4,1.09-.28,1.09-1.49,1.02-2.14.89-2.95,3.48-8.25,9.49-11.6,12.42-1.32-1.5-4.16-2.93-6.04-3.82,4.84-3.69,9.61-8.94,13.04-13.79ZM148.93,44.06l1.83-7.1,8.46.55c.41,0,1.11.48.96,1.02-.14.55-.54.75-2.02,1.23l-1.11,4.3h4.23l-1.74,6.76h-4.23l-5.9,22.86h4.71l-1.67,6.48h-33.98l1.67-6.48h5.19l5.9-22.86h-4.71l1.74-6.76h4.71l1.74-6.76,8.44.34c.34,0,1.05.41.91.96-.16.61-.64.89-1.99,1.36l-1.06,4.09h7.92ZM133.37,73.68h7.92l1.02-3.96h-7.92l-1.02,3.96ZM135.86,64.06h7.92l1-3.89h-7.92l-1,3.89ZM147.63,99.62c-2.13-2.59-2.91-3-6.04-4.37,1.87-1.71,3.51-3.28,4.93-4.85-2.79,1.3-4.85,2.39-7.62,3.89-1.63-3.21-2.56-6.21-3.02-9.96l6.95-3.41c.83,3.41,1.98,6.62,3.76,9.49,3.22-3.48,5.6-6.89,7.82-11.81,1.63-3.69,2.91-7.58,3.88-11.33l7.17-27.78h24.63l-13.47,52.21c-.63,2.46-2.03,4.44-4.43,5.8-2.18,1.3-7.11,1.64-9.43,1.64.38-2.8-.11-5.94-1.25-8.12,1.11.2,3.42.48,4.52.48,1.64,0,2.43-.68,2.89-2.46l3.33-12.9h-8.46c-3.38,8.87-8.51,16.58-16.16,23.48ZM138.3,54.57h7.92l.97-3.75h-7.92l-.97,3.75ZM168.12,61.47l-1.29,4.98c-.23.89-.37,1.43-.74,2.59h7.98l1.96-7.58h-7.92ZM177.85,54.44l1.95-7.58h-7.92l-1.95,7.58h7.92Z"/>
        <path class="cls-2" d="M190.87,99.75c-.25-2.73-.84-4.16-2.14-7.03,6.52-.41,14.75-1.36,20.47-6.62h-10.1l.55-2.12c-2.59,1.3-5.12,2.39-7.77,3.41-1.09-2.12-2.6-3.96-4.48-5.39,4.38-1.36,8.18-2.87,12.29-5.32h-9.62l1.58-6.14h16.72c.88-.75,1.79-1.64,2.63-2.53h-11.74l4.84-18.77h10.64l.69-2.66h-17.47l1.53-5.94h17.47l1.09-4.23,8.71.61c.53.07.75.27.62.75-.16.61-.78.89-2.13,1.37l-.39,1.5h10.99l1.06-4.09,8.75.48c.41,0,.68.27.56.75-.19.75-1.24,1.09-1.82,1.23l-.42,1.64h17.33l-1.53,5.94h-17.33l-.69,2.66h10.58l-4.84,18.77h-26.27c-.43.89-1.7,1.02-2.45,1.02-.5.61-.88,1.02-1.34,1.5h36.51l-1.58,6.14h-9.28c2.85,1.91,6.13,3.21,9.52,4.37-2.63,2.25-4.28,3.89-6.4,6.55-2.8-1.3-5.43-3-7.91-4.78-3.82,12.42-5.32,16.65-17.19,16.65-1.43,0-2.37-.07-3.75-.27.52-2.8.42-5.05-.32-7.51,2.23.34,4.48.61,6.8.61,3.41,0,4.27-2.8,5.29-6.21h-11.05c-7.27,9.42-17.04,12.35-27.2,13.65ZM215.24,76.69h-4.37c-1.63,1.3-3.31,2.52-5.04,3.69h7.71c.81-1.3,1.28-2.32,1.7-3.69ZM209.43,60.58l-.67,2.59h31.8l.67-2.59h-31.8ZM242.92,54.03h-31.8l-.63,2.46h31.8l.63-2.46ZM235.1,80.37c-1.27-1.16-2.54-2.32-3.62-3.69h-6.35c.1.14.13.27.1.41-.14.55-.98.89-2.5,1.23-.33.75-.62,1.37-1.01,2.05h13.38ZM223.35,46.59l-.69,2.66h10.99l.69-2.66h-10.99Z"/>
        <path class="cls-2" d="M320.33,51.84l-1.39,5.39h-18.49l-.76,2.93h18.49l-1.41,5.46h-18.49l-.79,3.07h23.68l-1.51,5.87h-22.04c-.3.89-1.49,1.02-2.19,1.09l-.62,2.39h26.82l-1.57,6.07h-18.97c2.36,1.98,4.81,3.82,7.67,5.19,2.85,1.37,6.53,3,9.78,3.62-2.04,1.57-4.66,4.3-6.28,6.35-7.25-2.59-15.11-7.03-19.6-12.9l-3.38,13.1h-8.19l3.4-13.17c-8.01,5.66-16.92,10.03-25.81,13.04-.2-.27-.93-1.43-1.3-2.12-1.09-1.84-1.78-2.87-2.9-4.09,8.24-2.05,14.24-4.16,21.91-9.01h-18.63l1.57-6.07h27.29l.9-3.48h-18.22l5.18-20.06c-1.91,1.57-3.86,3.07-5.85,4.44-2.34-2.32-3.32-3.28-5.51-4.3,7.77-5.53,14.45-11.33,20.26-18.77l7.23,2.39c.44.14.58.41.49.75-.25.96-1.56,1.02-2.24,1.02-.83,1.09-1.69,2.05-2.64,3.07h9.62c2.8-2.93,4.1-4.5,5.65-6.82l8.43,1.43c.53.07.83.48.71.96-.18.68-.91.89-2.55,1.16-.4.48-2.63,2.8-3.1,3.28h22.04l-1.51,5.87h-22.93l-.74,2.87h18.49ZM279.45,65.63l-.79,3.07h10.71l.79-3.07h-10.71ZM281.61,57.24l-.76,2.93h10.71l.76-2.93h-10.71ZM294.45,48.98h-10.71l-.74,2.87h10.71l.74-2.87Z"/>
        <path class="cls-2" d="M368.59,38.33l-5.79,22.45h-18.97l-9.84,38.15h-8.19l15.63-60.6h27.16ZM371.99,75.39h7.44l-1.69,6.55h-7.44l-3.91,15.15h-7.37l3.91-15.15h-6.21c-3.18,6.76-7.97,12.63-14.82,16.45-1.63-2.66-2.4-3.14-5.25-4.5,5.79-2.87,10.03-6.07,12.7-11.94h-7.71l1.69-6.55h8.39c.51-1.71.93-3.34,1.37-5.05h-6.69l1.59-6.14h32.96l-1.59,6.14h-6.07l-1.3,5.05ZM346.11,51.91l-.76,2.93h11.26l.76-2.93h-11.26ZM359.34,44.27h-11.26l-.74,2.87h11.26l.74-2.87ZM360.4,70.34c-.44,1.71-.86,3.34-1.37,5.05h5.59l1.3-5.05h-5.53ZM400.38,38.33l-13.5,52.34c-2.11,8.19-7.85,8.46-14.53,8.46.42-3.21-.09-5.73-1.03-8.46,1.29.27,2.74.48,4.11.48,1.91,0,3.35-.55,3.91-2.73l7.11-27.57h-19.18l5.81-22.52h27.29ZM377.36,51.91l-.77,3h11.39l.78-3h-11.4ZM390.73,44.27h-11.39l-.76,2.93h11.4l.76-2.93Z"/>
        <path class="cls-2" d="M424.39,87.06c-2.59,1.3-5.62,3-7.97,4.71-.41-2.12-1.31-4.71-2.25-6.62-4.09,5.26-8.73,9.76-14.08,13.85-1.44-1.84-3.73-3.28-5.94-4.23,6.2-4.71,11.83-9.62,16.5-15.83-.98-1.5-2.11-2.93-3.26-4.3-.57.89-1.14,1.77-1.76,2.59-1.8-1.23-4.27-1.98-6.62-2.39,4.25-6.14,7.86-12.49,10.92-19.04h-5.05l1.94-7.51h6.48c2-4.85,3.19-7.85,4.41-11.53l7.48,1.16c.46.07.97.21.83.75-.14.55-.52.96-1.71,1.09-.84,2.18-1.39,3.55-3.57,8.53h10.71c-2.67,9.83-6.13,19.52-11.75,28.87,1.85,3.14,3.55,6.35,4.68,9.9ZM421.81,55.8h-4.3c-1.67,3.82-3.59,7.58-5.72,11.33,1.3,1.3,2.57,2.73,3.77,4.16,2.8-5.05,4.71-10.31,6.25-15.49ZM431.25,96.2l-.74,2.87h-7.98l7.46-28.94h30.23l-7.46,28.94h-8.12l.74-2.87h-14.12ZM452.92,48.7l7.76-3.34c2.38,5.87,4.41,13.85,4.87,20.54-2.38.75-5.85,2.32-8.05,3.69-.21-1.84-.45-3.55-.74-5.32-6.5.61-17.24,1.5-26.22,2.18-.9,1.37-1.21,1.77-1.75,1.77-.75,0-.69-.75-.62-1.3l1.09-8.19c1.11-.07,5.39-.27,5.94-.27,3.97-6.14,8.94-15.36,11.64-21.84l8.31,1.64c.39.07,1.09.27.93.89-.21.82-1,.96-2.21,1.16-4.95,8.87-7.18,12.76-10.38,17.74,2.83-.14,8.06-.55,11.97-.89-.7-2.87-1.53-5.73-2.53-8.46ZM450.16,77.64h-14.12l-2.85,11.06h14.12l2.85-11.06Z"/>
        <path class="cls-2" d="M482.28,83.31l-2.76,10.71h-10.37l2.76-10.71h10.37ZM493.05,40.24l-4.29,16.65-7.24,20.13h-5.53l3.15-20.13,4.29-16.65h9.62Z"/>
        <path class="cls-2" d="M505.55,83.31l-2.76,10.71h-10.37l2.76-10.71h10.37ZM516.32,40.24l-4.29,16.65-7.24,20.13h-5.53l3.08-20.13,4.3-16.65h9.69Z"/>
      </g>
    </g>
  </g>
</svg>