<svg xmlns="http://www.w3.org/2000/svg" xmlns:xlink="http://www.w3.org/1999/xlink" width="460" height="157.875" viewBox="0 0 460 157.875"><defs><clipPath id="a"><rect width="460" height="157.875" fill="none"/></clipPath></defs><path d="M12,160.006H462.263v-3.477L12,7Z" transform="translate(-3.654 -2.132)" fill="#fff"/><g clip-path="url(#a)"><path d="M2,155.006H459.218l-69-129.3A44.8,44.8,0,0,0,350.688,2H2Z" transform="translate(-0.609 -0.609)" fill="#c1272d"/><path d="M2,155.006H459.218l-69-129.3A44.8,44.8,0,0,0,350.688,2H2Z" transform="translate(-0.609 -0.609)" fill="none" stroke="#fff" stroke-linecap="round" stroke-linejoin="round" stroke-width="4"/><path d="M540.506,140.915a26.374,26.374,0,1,0-26.374,26.374,26.374,26.374,0,0,0,26.374-26.374" transform="translate(-148.53 -34.88)" fill="#fff"/><path d="M77.813,170H52.374l10.1-14.97q1.723-2.553,2.9-4.56a34.368,34.368,0,0,0,1.843-3.55,14.255,14.255,0,0,0,1.316-5.956A4.933,4.933,0,0,0,67.9,138.3a1.92,1.92,0,0,0-1.7-.984q-2.393,0-2.393,5c0,.177,0,.39.013.638s.019.542.035.878H54.168l-.047-1.489a14.918,14.918,0,0,1,3.446-10.158,11.238,11.238,0,0,1,8.878-3.989,10.8,10.8,0,0,1,8.52,3.776,13.881,13.881,0,0,1,3.326,9.653,20.481,20.481,0,0,1-2.273,9.306,34.365,34.365,0,0,1-2.979,4.747,54.723,54.723,0,0,1-4.439,5.225q2.249-.187,4.535-.266t4.679-.079Z" transform="translate(-15.949 -39.039)" fill="#fff"/><path d="M122.809,149.738q0,9.627-3.446,15.317-3.446,5.663-9.262,5.663-6.294,0-9.859-5.716Q96.7,159.311,96.7,149.1q0-9.652,3.541-15.262,3.565-5.637,9.621-5.638,6.1,0,9.525,5.717t3.422,15.821m-9.86-.079q0-11.886-3.231-11.886-3.207,0-3.207,10.636,0,12.711,3.135,12.711,1.7,0,2.5-2.779a34.113,34.113,0,0,0,.8-8.682" transform="translate(-29.447 -39.039)" fill="#fff"/><path d="M163.3,170H137.864l10.1-14.97q1.723-2.553,2.9-4.56a34.368,34.368,0,0,0,1.843-3.55,14.255,14.255,0,0,0,1.316-5.956,4.933,4.933,0,0,0-.622-2.659,1.92,1.92,0,0,0-1.7-.984q-2.393,0-2.393,5c0,.177,0,.39.013.638s.019.542.035.878h-9.692l-.047-1.489a14.918,14.918,0,0,1,3.446-10.158,11.238,11.238,0,0,1,8.878-3.989,10.8,10.8,0,0,1,8.52,3.776,13.881,13.881,0,0,1,3.326,9.653,20.481,20.481,0,0,1-2.273,9.306,34.366,34.366,0,0,1-2.979,4.747,54.722,54.722,0,0,1-4.439,5.225q2.249-.187,4.535-.266t4.679-.079Z" transform="translate(-41.982 -39.039)" fill="#fff"/><path d="M206.669,170.326h-9.954V162H183.289v-8.669l11.151-24.064h12.229v23.9h3.159V162h-3.159Zm-9.5-17.151v-7.684q0-.532.06-1.7t.179-3l-1.483,3.509q-1.1,2.58-2.2,4.8t-2.2,4.081Z" transform="translate(-55.814 -39.365)" fill="#fff"/><path d="M241.864,177.643a6.074,6.074,0,0,1-1.652,4.281,5.08,5.08,0,0,1-3.925,1.782,5.314,5.314,0,0,1-4-1.808,6.407,6.407,0,0,1-1.651-4.441,6.291,6.291,0,0,1,1.627-4.361,5.1,5.1,0,0,1,3.925-1.808,5.179,5.179,0,0,1,4.02,1.862,6.474,6.474,0,0,1,1.652,4.494" transform="translate(-70.234 -52.16)" fill="#fff"/><path d="M275.036,165.66h-12.57V126.1h-5.034V113.946h17.6Z" transform="translate(-78.392 -34.698)" fill="#fff"/><path d="M325.684,165.249H293.641l12.721-18.857q2.17-3.215,3.647-5.744a43.452,43.452,0,0,0,2.322-4.472,17.973,17.973,0,0,0,1.658-7.5,6.216,6.216,0,0,0-.784-3.349,2.42,2.42,0,0,0-2.141-1.24q-3.015,0-3.014,6.3c0,.223,0,.492.015.8s.025.682.045,1.105H295.9l-.061-1.876q0-7.8,4.341-12.794a14.157,14.157,0,0,1,11.183-5.024,13.6,13.6,0,0,1,10.732,4.756q4.188,4.656,4.19,12.158a25.8,25.8,0,0,1-2.864,11.723,43.291,43.291,0,0,1-3.752,5.978,68.829,68.829,0,0,1-5.592,6.582q2.833-.234,5.712-.335t5.894-.1Z" transform="translate(-89.418 -34.288)" fill="#fff"/><path d="M367.249,174.876a7.651,7.651,0,0,1-2.079,5.393,6.4,6.4,0,0,1-4.944,2.244,6.692,6.692,0,0,1-5.034-2.277,8.07,8.07,0,0,1-2.079-5.594,7.918,7.918,0,0,1,2.05-5.492,6.417,6.417,0,0,1,4.944-2.278,6.523,6.523,0,0,1,5.064,2.344,8.156,8.156,0,0,1,2.079,5.661" transform="translate(-107.528 -50.815)" fill="#fff"/><path d="M382.811,150.043H395.08q0,4.656,3.075,4.656a2.963,2.963,0,0,0,2.5-1.323,5.745,5.745,0,0,0,.965-3.466q0-5.459-5.124-5.46-.362,0-.9.05t-1.236.118V133.6q.512.034.889.051t.618.017q5.154,0,5.154-5.259,0-4.287-2.683-4.287-2.11,0-2.411,3.45l-.06.7H383.715q.512-7.234,4.552-11.421a13.789,13.789,0,0,1,10.521-4.254,13.565,13.565,0,0,1,10.309,4.354,14.752,14.752,0,0,1,4.19,10.684,12.269,12.269,0,0,1-5.637,10.886q6.24,3.986,6.24,11.991a15.126,15.126,0,0,1-4.432,11.287,15.4,15.4,0,0,1-11.363,4.354,14.8,14.8,0,0,1-11.033-4.253,15,15,0,0,1-4.25-11.087Z" transform="translate(-116.572 -34.288)" fill="#fff"/><path d="M456.6,165.66h-12.57V126.1H439V113.946h17.6Z" transform="translate(-133.682 -34.698)" fill="#fff"/><path d="M496.678,140.37h2.779v2.07q1.15-2.344,3.056-2.345a2.858,2.858,0,0,1,2.823,2.345,3.444,3.444,0,0,1,3.144-2.345,3.1,3.1,0,0,1,2.422.93,3.976,3.976,0,0,1,.837,2.741v13.339h-2.794V146.094a6.617,6.617,0,0,0-.32-2.538,1.185,1.185,0,0,0-1.193-.663,1.408,1.408,0,0,0-1.368.679,6.1,6.1,0,0,0-.349,2.521v11.012h-2.881V146.094a11.881,11.881,0,0,0-.081-1.5,3.125,3.125,0,0,0-.268-.986,1.237,1.237,0,0,0-.5-.541,1.539,1.539,0,0,0-.757-.17,1.441,1.441,0,0,0-1.368.727,5.412,5.412,0,0,0-.408,2.473v11.012h-2.779Z" transform="translate(-151.246 -42.661)" fill="#9e6648"/><path d="M532.567,148.876q0,8.489-4.73,8.488t-4.729-8.618q0-8.649,4.715-8.65a4.161,4.161,0,0,1,2.117.517,3.927,3.927,0,0,1,1.477,1.6,9.019,9.019,0,0,1,.866,2.733,23.512,23.512,0,0,1,.284,3.929m-2.882-.081a18.1,18.1,0,0,0-.392-4.592q-.393-1.308-1.4-1.309-.989,0-1.412,1.293a17.664,17.664,0,0,0-.393,4.511,17.454,17.454,0,0,0,.393,4.495q.423,1.294,1.412,1.294t1.383-1.277a15.9,15.9,0,0,0,.407-4.414" transform="translate(-159.295 -42.661)" fill="#9e6648"/><path d="M541.5,140.37h2.779v1.924a3.519,3.519,0,0,1,3.085-2.2,2.7,2.7,0,0,1,2.619,1.6,9.307,9.307,0,0,1,.436,3.509v11.9h-2.779l-.014-11.189a5.71,5.71,0,0,0-.364-2.409,1.288,1.288,0,0,0-1.251-.711,1.614,1.614,0,0,0-.807.186,1.337,1.337,0,0,0-.531.6,3.569,3.569,0,0,0-.3,1.075,11.8,11.8,0,0,0-.095,1.633v10.817H541.5Z" transform="translate(-164.896 -42.661)" fill="#9e6648"/><path d="M76.976,63.094l-2.63,10.194H68.9l7.458-28.906H94.138L87.905,68.541c-.96,3.724-2.6,4.655-8.952,4.747a10.307,10.307,0,0,0-.549-5.631,24.73,24.73,0,0,0,2.64.233c1.07,0,1.687-.047,2.143-1.817l.769-2.979ZM99.511,37.446a59.723,59.723,0,0,0,5.92-6.889l5.585,1.63c.255.092.452.232.38.512-.192.745-1.285.652-1.519.652-1.256,1.443-2.442,2.793-3.71,4.1H117.8l-1.273,4.934H73.942l1.274-4.934H86.525a19.839,19.839,0,0,0-1.964-4.655l5.919-2.374a25.053,25.053,0,0,1,2.4,6.051l-2.719.978ZM85.039,58.905l.78-3.026H78.837l-.781,3.026ZM86.9,51.69l.745-2.886H80.663l-.745,2.886Zm16.288-6.843c.28,0,.755.14.659.513-.06.232-.609.558-1,.791L98,64.956H92.321l5.247-20.342Zm10.178-1.024c.326,0,.814.092.694.558-.084.325-.189.372-1.287.837l-5.812,22.53c-1.3,5.028-4.06,5.633-10.412,5.54a12.785,12.785,0,0,0,.14-5.958c.674.093,2.442.279,3.14.279.744,0,1.536,0,1.968-1.675L107.585,43.5Z" transform="translate(-20.981 -9.262)" fill="#fff"/><path d="M145.285,64.9a107.019,107.019,0,0,1-7.91,8.472,15.188,15.188,0,0,0-4.122-2.607,46.28,46.28,0,0,0,8.9-9.4L146.39,63.5a.677.677,0,0,1,.353.791c-.156.605-.89.744-1.459.605M136.3,60.752l1.141-4.421h3.537L145,40.736h-3.212l1.189-4.608h3.212l1.189-4.608,5.619.233c.465,0,.858.279.762.652-.108.419-.364.512-1.356.931l-.721,2.793h5.4l1.248-4.841,5.722.372c.406.047.8.326.7.7-.108.419-.727.652-1.381.838l-.755,2.932h2.886l-1.189,4.608h-2.886l-4.023,15.595h3.212l-1.141,4.421Zm16.266-7.121h-5.4l-.7,2.7h5.4Zm1.681-6.517h-5.4l-.685,2.653h5.4ZM166.52,73.694a9.772,9.772,0,0,0-.851-5.54,25.76,25.76,0,0,0,3.081.325c.7,0,1.547-.047,1.968-1.675l2.27-8.8h-5.772A40.45,40.45,0,0,1,156.2,74.019a8.389,8.389,0,0,0-4.119-2.979c.96-.838,2.2-2.048,3.4-3.258-2.043.884-2.968,1.4-5.234,2.607a20.532,20.532,0,0,1-2.063-6.8l4.742-2.328a20.84,20.84,0,0,0,2.566,6.471c2.97-3.212,5.868-7.588,7.981-15.781l4.888-18.946h16.8l-9.187,35.61c-1.045,4.05-4.533,5.12-9.455,5.075M155.893,40.736h-5.4l-.66,2.56h5.4ZM175.57,48h-5.4l-.877,3.4c-.06.233-.431,1.49-.5,1.769h5.446Zm2.57-9.961h-5.4L171.408,43.2h5.4Z" transform="translate(-40.577 -9.527)" fill="#fff"/><path d="M213.22,64.638l.373-1.442a51.564,51.564,0,0,1-5.3,2.327,11.359,11.359,0,0,0-3.055-3.678,34.837,34.837,0,0,0,8.384-3.63h-6.563l1.081-4.19h11.4a24.8,24.8,0,0,0,1.794-1.722h-8l3.3-12.8h7.261l.468-1.816H212.447l1.045-4.049h11.916l.744-2.886,5.3.372c.5.047,1.186.092,1.066.558s-.586.652-1.45.931l-.264,1.024H238.3l.721-2.794,5.327.28c.593.047,1.14.092,1.008.606s-.785.7-1.228.79l-.288,1.118h11.823l-1.045,4.049H242.795l-.468,1.816h7.214l-3.3,12.8h-17.92c-.3.605-1.25.7-1.669.7a9.458,9.458,0,0,1-.916,1.024h24.9l-1.08,4.19h-6.33a27.72,27.72,0,0,0,6.492,2.979,30.409,30.409,0,0,0-4.365,4.469,33.083,33.083,0,0,1-5.4-3.259c-2.734,8.611-3.582,11.357-11.681,11.357a16.013,16.013,0,0,1-2.6-.186,10.153,10.153,0,0,0-.215-5.121,26.146,26.146,0,0,0,4.64.419c2,0,2.72-1.164,3.606-4.236h-7.54c-5.3,6.843-12.543,8.565-18.553,9.31a12.5,12.5,0,0,0-1.462-4.795c8.742-.512,11.994-2.653,13.965-4.516Zm8.034-6.423c-1.287,1.023-2.552,1.954-3.441,2.513h5.259a11.577,11.577,0,0,0,1.16-2.513Zm-.982-10.987L219.816,49h21.689l.457-1.769Zm22.411-2.793.432-1.675h-21.69l-.432,1.675Zm-11.7,13.78c.023.092.091.186.067.278-.132.513-1.216.745-1.706.838-.142.373-.307.652-.686,1.4h9.123a21.769,21.769,0,0,1-2.47-2.513Zm6.274-20.529h-7.494l-.469,1.816h7.494Z" transform="translate(-62.498 -9.364)" fill="#fff"/><path d="M303.332,41.108h12.615L315,44.785H302.383l-.516,2h12.614l-.961,3.724H300.906l-.54,2.095h16.15l-1.032,4H300.45c-.215.652-1.111.7-1.5.745l-.42,1.63h18.293l-1.07,4.143H302.818a28.331,28.331,0,0,0,11.9,6,26.945,26.945,0,0,0-4.281,4.329c-5.8-2.048-10.722-5.353-13.371-8.8l-2.3,8.937h-5.586l2.318-8.984a66.678,66.678,0,0,1-17.608,8.892,21.739,21.739,0,0,0-2.863-4.236,46.525,46.525,0,0,0,14.943-6.145H273.262l1.07-4.143h18.617l.612-2.374H281.133l3.53-13.685c-1.182.977-2.283,1.815-4,3.072-1.916-1.956-2.459-2.374-3.747-2.979a64.865,64.865,0,0,0,13.821-12.8l4.5,1.49c.255.093.859.279.751.7-.133.512-.914.652-1.519.652a24.294,24.294,0,0,1-1.8,2.095h6.563a31.242,31.242,0,0,0,3.854-4.655l5.485.931c.487.093.883.186.75.7s-.959.651-1.74.791c-.328.373-1.408,1.49-2.113,2.235h15.035l-1.033,4H303.837Zm-7.965,9.4H288.06l-.54,2.095h7.307Zm1.477-5.725h-7.307l-.516,2h7.308Zm1.454-5.633H290.99l-.5,1.956h7.307Z" transform="translate(-82.531 -9.201)" fill="#fff"/><path d="M370.161,32.625,366.21,47.94H353.27l-6.713,26.02h-5.584l10.664-41.335ZM372.484,57.9h5.074L376.4,62.37h-5.074L368.665,72.7h-5.026L366.3,62.37h-4.236A24.069,24.069,0,0,1,351.96,73.588c-1.1-1.862-1.636-2.141-3.583-3.073,3.575-1.768,6.675-3.862,8.664-8.146h-5.259l1.153-4.468h5.725c.611-2.188.779-2.84.935-3.445h-4.562l1.081-4.19H378.6l-1.08,4.19h-4.142ZM354.831,41.888l-.516,2H362l.516-2Zm8.521-3.258.5-1.955h-7.68l-.5,1.955Zm4.994,15.827h-3.77c-.264,1.024-.552,2.141-.935,3.445h3.818Zm23.506-21.832-9.211,35.7c-1.393,5.4-5.039,5.818-9.914,5.773a12.1,12.1,0,0,0-.7-5.773,16.282,16.282,0,0,0,2.755.325c1.117,0,2.282-.186,2.714-1.862l4.852-18.807H369.27l3.963-15.361Zm-15.7,9.263-.529,2.048h7.773l.529-2.048Zm8.6-3.212.517-2h-7.773l-.517,2Z" transform="translate(-103.832 -9.935)" fill="#fff"/><path d="M415.342,44.031l1.321-5.119h4.422c1.591-3.818,2.089-5.028,3.008-7.867l5.1.791c.314.047.65.186.566.512-.108.419-.494.652-1.17.746-.449,1.023-2.206,5.307-2.431,5.818h7.307a75.789,75.789,0,0,1-8.011,19.69,29.868,29.868,0,0,1,3.192,6.75,43.322,43.322,0,0,0-5.437,3.212,16.556,16.556,0,0,0-1.535-4.515,50.391,50.391,0,0,1-9.605,9.449,10.586,10.586,0,0,0-4.05-2.886,56.266,56.266,0,0,0,11.258-10.8c-.644-.931-1.554-2.095-2.223-2.933-.294.419-.848,1.3-1.2,1.769a12.166,12.166,0,0,0-4.513-1.63,85.957,85.957,0,0,0,7.447-12.987Zm8.611,0a75.7,75.7,0,0,1-3.9,7.728c.52.512,1.327,1.35,2.571,2.84a53.186,53.186,0,0,0,4.263-10.568Zm9.367,27.558-.5,1.956h-5.446l5.092-19.737h20.62L447.99,73.545h-5.539l.5-1.956ZM453.392,36.91a52.516,52.516,0,0,1,3.32,14.011,28.388,28.388,0,0,0-5.489,2.513c-.108-1.024-.24-1.955-.506-3.631-6.824.652-7.919.745-17.886,1.49-.506.7-.917,1.211-1.243,1.211-.466,0-.415-.559-.351-1.164l.717-5.307c.85-.047,2.736-.139,4.05-.186a111.831,111.831,0,0,0,7.939-14.9l5.67,1.117c.442.093.72.279.636.605-.132.512-.727.652-1.508.791-4.3,7.634-4.911,8.751-7.079,12.1,2.643-.139,4.879-.325,8.163-.6a51.917,51.917,0,0,0-1.723-5.773Zm-9.115,29.559,1.945-7.542h-9.635l-1.945,7.542Z" transform="translate(-124.248 -9.425)" fill="#fff"/><path d="M490.525,63.871l-1.885,7.309h-7.074l1.885-7.309ZM497.87,34.5l-2.931,11.359L490,59.589h-3.77l2.146-13.732L491.307,34.5Z" transform="translate(-146.644 -10.505)" fill="#fff"/><path d="M513.345,63.871l-1.885,7.309h-7.074l1.885-7.309ZM520.69,34.5l-2.931,11.359L512.82,59.589h-3.77l2.1-13.732,2.93-11.359Z" transform="translate(-153.593 -10.505)" fill="#fff"/></g></svg>