<svg xmlns="http://www.w3.org/2000/svg" width="55.035" height="14.159" viewBox="0 0 55.035 14.159"><path d="M159.609,34.17h.425a7.08,7.08,0,0,1,6.867-7.076v0a7.08,7.08,0,0,0-14.159,0v0a7.079,7.079,0,0,1,6.867,7.076" transform="translate(-152.742 -20.011)" fill="#00a041"/><path d="M191.034,22.339h-.976v.919h-4.7V24.1h4.7v.859h-4.116v4.016h3.252a10.021,10.021,0,0,1-3.84,2.245v.947a12.4,12.4,0,0,0,4.7-3.013v3.071h.976V29.151a12.393,12.393,0,0,0,4.7,3.013v-.947a10.016,10.016,0,0,1-3.84-2.245h3.252V24.956h-4.116V24.1h4.7v-.839h-4.7Zm-4.193,3.4h3.217v.875h-3.217Zm0,1.578h3.217v.875h-3.217Zm7.41.875h-3.217v-.875h3.217Zm0-1.578h-3.217v-.875h3.217Z" transform="translate(-165.517 -20.923)" fill="#898989"/><path d="M207.506,33.544a10.038,10.038,0,0,1-2.367,1.923V36.49a13.274,13.274,0,0,0,3.572-2.946Z" transform="translate(-173.267 -25.312)" fill="#898989"/><path d="M217.394,33.544h-1.141a12.34,12.34,0,0,0,3.623,2.943V35.464a12.535,12.535,0,0,1-2.482-1.92" transform="translate(-177.621 -25.312)" fill="#898989"/><path d="M214.264,29.964h.947V26.738h-8.633v3.226h3.809V32.65c0,.358-.2.456-.479.456h-1.184v.839h1.425c.882,0,1.255-.412,1.255-1.03V29.964Zm-6.738-2.445h6.738v1.663h-6.738Z" transform="translate(-173.831 -22.646)" fill="#898989"/><path d="M210.839,22.339h-1.016v.919H205.14V24.1h10.384v-.839h-4.684Z" transform="translate(-173.268 -20.923)" fill="#898989"/><path d="M239.114,26.273l1.2-3.72h-4.273v9.558h.821V23.344h2.366l-.982,2.982a5.194,5.194,0,0,1,1.292,2.778,1.213,1.213,0,0,1-1.206,1.3h-.721v.829h.7a2.078,2.078,0,0,0,2.1-2.142,4.9,4.9,0,0,0-1.292-2.821" transform="translate(-185.371 -21.007)" fill="#898989"/><path d="M230.2,22.419a7.949,7.949,0,0,1-.321.789h-1.906v-1h-.879v1h-1.987v.742h1.987V25.5H224.8v.742h2.707a11.173,11.173,0,0,1-2.4,1.535v.9c.178-.082.365-.176.555-.276v3.572h5.115V27.25h-3.3a12.124,12.124,0,0,0,1.159-1h2.144V25.5h-1.454a8.788,8.788,0,0,0,1.717-3.085Zm-.234,8.894H226.54V29.945h3.425Zm0-2.032H226.54V27.913h3.425ZM227.972,25.5V23.95h1.513A8.809,8.809,0,0,1,228.3,25.5Z" transform="translate(-180.969 -20.872)" fill="#898989"/></svg>