<svg xmlns="http://www.w3.org/2000/svg" xmlns:xlink="http://www.w3.org/1999/xlink" width="616.758" height="203.158" viewBox="0 0 616.758 203.158"><defs><clipPath id="a"><rect width="616.758" height="203.158" transform="translate(0 -11)" fill="none"/></clipPath></defs><g transform="translate(0 11)"><g clip-path="url(#a)"><path d="M120.237,184.274H68.682l-2.124,20.314H97.414l3.659,6.815c-8.118,12.471-19.756,24.171-34.3,34.2a107.542,107.542,0,0,0,44.767,16.971l-2.64,9.257c-19.733-3.086-36.764-9.9-51.218-20.443a171.022,171.022,0,0,1-56.7,20.957L0,263.216c17.706-3.343,34.24-9,49.7-17.872A76.985,76.985,0,0,1,28.7,213.717H14.69l.954-9.129H56.4l2.124-20.314H6.326l.954-9.128H59.222l2.083-19.928H71.72l-2.083,19.928h51.556ZM39.761,213.717a63.318,63.318,0,0,0,19.012,25.971,137.218,137.218,0,0,0,29.073-25.971Z" transform="translate(0 -80.187)" fill="#c1272d"/><path d="M258.6,212.483l12.771-6.557,3.45,7.586-17.256,8.871-4.692,44.871-5.112,4.629H235.423l.954-9.129h7.843l3.7-35.356-12.9,6.557-3.423-7.843,17.384-8.871,2.9-27.771h-16.2l.914-8.742h16.2l2.595-24.814h9.128l-2.594,24.814h15.557l-.914,8.742H261.011ZM344.4,262.5l-2.43,8.486c-14.117-2.7-25.644-6.815-34.437-12.471a105.614,105.614,0,0,1-39.5,12.6l-.141-8.486a94.96,94.96,0,0,0,31.892-9.9A47.437,47.437,0,0,1,288.9,237.554a172.65,172.65,0,0,1-19.69,21.085l-5.641-6.3a157.138,157.138,0,0,0,27.6-32.785H274.194l.874-8.357h20.571a82.231,82.231,0,0,0,4-8.743H278.554l.874-8.357h39.6l18.827-26.357,7.061,5.014L329.7,194.1h18.771l-.874,8.357H309.024a91.413,91.413,0,0,1-3.485,8.743h43.2l-.874,8.357h-46.67c-1.413,2.443-2.812,4.757-4.339,7.071h37.028l3.029,6.686A85.356,85.356,0,0,1,316.6,252.982a89.624,89.624,0,0,0,27.8,9.514m2.206-97.327c-20.7,2.443-41.458,4.243-62.047,5.657l.244-8.486c22-1.414,42.52-3.343,61.648-5.529ZM290.9,192.555l-5.255-14.914,7.936-3.343,5.139,14.785Zm33.247,42.3H297.794a42.243,42.243,0,0,0,10.741,12.857,89.668,89.668,0,0,0,15.615-12.857m-14.012-45.514-6-15.171,7.834-3.6,6.012,15.043Z" transform="translate(-103.231 -80.496)" fill="#c1272d"/><path d="M567.979,220.571a88.584,88.584,0,0,1-16.383,28.8c-7.91,9.257-16.927,15.557-27.034,18.772a42.259,42.259,0,0,1-12.957,2.185c-9,0-15.877-3.086-20.774-9.129-4.666-5.785-6.458-13.242-5.5-22.371l6.924-66.213h9.129l-6.924,66.213c-1.385,13.243,4.976,22.5,17.961,22.5a31.847,31.847,0,0,0,10.886-2.057c8.409-2.958,15.788-8.357,22.42-16.457a78.474,78.474,0,0,0,13.483-24.428Z" transform="translate(-216.219 -87.941)" fill="#c1272d"/><path d="M743.8,188.312H711.276L709.542,204.9H741.3l-.847,8.1H708.7l-1.615,15.428h28.543l-.861,8.229H706.221L704.837,249.9a22.984,22.984,0,0,1-7.872,15.042,22.608,22.608,0,0,1-15.56,6.172,18.427,18.427,0,0,1-14.384-6.3,18.643,18.643,0,0,1-4.727-15.043,22.98,22.98,0,0,1,7.874-15.043,22.747,22.747,0,0,1,15.7-6.3h12.985L700.467,213H658.3l.846-8.1h42.17l1.734-16.586H661.906l.873-8.357h41.142l1.4-13.371h8.228l-1.4,13.371h32.528Zm-45.811,48.342H685.007a14.982,14.982,0,0,0-14.486,13.114,11.64,11.64,0,0,0,11.743,13.114A14.724,14.724,0,0,0,696.608,249.9Z" transform="translate(-293.429 -85.253)" fill="#c1272d"/><path d="M946.422,192.627H907.081L905,212.556a19.758,19.758,0,0,1,3.305,13.885c-.457,4.371-3.194,9.643-8.353,15.943-8.106,9.9-17.464,20.7-27.816,32.4l-6.162-5.014,18.161-21.214c-6.3,0-11.484-2.057-15.54-6.3s-5.691-9.514-5.032-15.814a24.147,24.147,0,0,1,8.21-15.814,23.521,23.521,0,0,1,16.513-6.685,20.32,20.32,0,0,1,9.17,2.057l1.4-13.372h-51.3l.874-8.357h51.3l2.044-19.543H910l-2.044,19.543H947.3Zm-49.414,23.786a12.313,12.313,0,0,0-9.585-4.243,15.221,15.221,0,0,0-10.472,4.243,15.794,15.794,0,0,0-5.162,10.028,12.836,12.836,0,0,0,3.065,10.029,12.686,12.686,0,0,0,9.6,4.114,15.634,15.634,0,0,0,10.459-4.114,15.384,15.384,0,0,0,5.292-10.029,12.459,12.459,0,0,0-3.195-10.028" transform="translate(-377.788 -84.426)" fill="#c1272d"/><path d="M1059.139,276.3c-4.758,0-7.737-3.471-7.253-8.1a8.923,8.923,0,0,1,8.96-8.229c4.627,0,7.608,3.472,7.111,8.229a8.858,8.858,0,0,1-8.818,8.1m17.332-101.827L1066,248.784h-7.585l6.1-74.314Z" transform="translate(-468.844 -88.768)" fill="#c1272d"/><path d="M56.012,33.691,33.62,49.5l-2.3-3.588L53.765,30.165ZM89.115,14.9H64l-.6,5.777A55.085,55.085,0,0,0,67.755,28.4l13.235-9.67,2.32,3.405L70.082,31.746A56.912,56.912,0,0,0,85.84,46.22l-2.658,3.892A62.764,62.764,0,0,1,62.547,28.766L60.023,52.909l-2.486,2.25H48.962l.464-4.44h6.386L59.558,14.9H34.806l.445-4.257H59.942L61.056,0h4.5L64.442,10.643H89.56ZM48.882,27.428l-3.468,2.919-7.137-8.514,3.474-2.98ZM81.772,6.021,78.631,9.3l-6.255-5.9L75.517.122Z" transform="translate(-13.96)" fill="#c1272d"/><path d="M192.446,56.688Q175.538,45.651,172,21.294c-5.444,15.994-14.346,27.853-26.7,35.455l-2.25-4.075a57.563,57.563,0,0,0,19.584-21.528A66.724,66.724,0,0,0,170.97,3.84L176.5,3.9a57.042,57.042,0,0,0,.643,18.853q3.731,20.16,18.589,29.86Z" transform="translate(-63.766 -1.712)" fill="#c1272d"/><path d="M273,28.271l-8.595,4.257L262.2,53.692l-2.412,2.129H253.7l.426-4.075h3.953l1.78-17.029-6.924,3.406-1.5-3.649,8.911-4.378,1.38-13.2H254l.426-4.075h7.724l1.158-11.068h4.318l-1.158,11.068h7.42l-.426,4.075h-7.42l-1.158,11.068,6.608-3.283Zm32.212,11.251c-.757,7.237-2.789,12.71-6.09,16.359l-8.156.061.42-4.013h5.534a27.634,27.634,0,0,0,4.034-12.407l.705-7.906-22.454.121c-1.411,1.278-2.869,2.433-4.328,3.588h3.953l-.407,3.893L292.652,35.2l.816,3.831-15.474,4.318-.413,3.953,11.927-.061.372-2.98h4.136l-.515,4.926-2.284,2.067h-13.8c-2.98,0-4.368-1.277-4.094-3.892l1.227-11.738c-1.459,1.156-2.912,2.25-4.29,3.224l-2.217-3.224a101.246,101.246,0,0,0,14.293-12.224h-5.17l2.175-20.8h26.212l-2.175,20.8H283.852l2.119,1.825c-.617.669-1.368,1.459-2.316,2.372l22.813-.06Zm-5.747-20.069.458-4.379H282.412l-.458,4.379Zm.865-8.271.464-4.44H283.282l-.464,4.44Z" transform="translate(-112.074 -0.783)" fill="#c1272d"/><path d="M395.281,25.494h-12.71l-.248,2.372h11.494l-1.571,15.021H380.752l-.267,2.555h11.677l-.375,3.588H380.11l-.661,6.325h-4.135l.661-6.325H361.926l.375-3.588H376.35l.267-2.555H364.088l1.571-15.021h12.529l.248-2.372H364.691l.362-3.466H378.8l.286-2.736h4.135l-.287,2.736h12.711Zm20.975,21.59-4.067,7.48-3.428.79a23.408,23.408,0,0,1-6.313-10.582,63.5,63.5,0,0,1-11.4,10.764l-2.218-3.223a59.714,59.714,0,0,0,12.494-12.467c-.942-5.534-1.158-12.771-.636-21.832H363.953l.388-3.71h15.2l.515-4.926H368.322l.388-3.71h11.738l.547-5.23h4.318l-.546,5.23H395.9l-.388,3.71h-11.13l-.515,4.926h17.029c.26-3.649.67-8.149,1.235-13.562h4.379c-.566,5.413-.976,9.913-1.3,13.562h14.109l-.388,3.71H404.943a119.9,119.9,0,0,0-.065,16.906,61.33,61.33,0,0,0,6.693-13.987l3.919.912a68.186,68.186,0,0,1-9.731,18.609,25.116,25.116,0,0,0,4.206,9.792l2.552-4.622Zm-39.29-7.541.261-2.493h-8.636l-.261,2.493Zm.585-5.595.292-2.8h-8.636l-.292,2.8ZM388.7,39.543l.26-2.493h-7.6l-.26,2.493Zm.585-5.595.292-2.8h-7.6l-.292,2.8ZM418.313,9.379l-3.551,2.554-5.043-7.6,3.544-2.494Z" transform="translate(-161.325 -0.196)" fill="#c1272d"/><path d="M504.258,50.769a18.519,18.519,0,0,1-13.11,4.8l.384-3.674a14.589,14.589,0,0,0,10.3-3.844,15.515,15.515,0,0,0,4.784-10.063,14,14,0,0,0-1.046-7.293c-1.147-2.544-2.99-3.844-5.478-3.844h-7.745l-8.2,28.718-3.661-.678,7.964-28.04h-7.858l.378-3.618h8.481l3.028-10.572,3.717.678-2.844,9.894h7.294a8.587,8.587,0,0,1,8.023,4.918,16.237,16.237,0,0,1,1.736,9.894,19.35,19.35,0,0,1-6.136,12.72m17.31-7.123-3.752.735-2.387-26.91,3.808-.735Z" transform="translate(-214.167 -5.645)" fill="#c1272d"/><path d="M598.946,48.982c-3.728,5.371-10.07,8.706-19.082,10.007l-.131-3.618a34.522,34.522,0,0,0,9.036-2.6,17.223,17.223,0,0,0,7.4-5.936,9.813,9.813,0,0,0,1.693-4.3,5.441,5.441,0,0,0-2.113-5.2,8.938,8.938,0,0,0-5.645-1.7c-4.863,0-10.809,2.261-17.9,6.84l-.308,2.94h-3.618l2.524-24.14h3.619l-1.756,16.791c6.808-4.014,12.788-6.05,17.934-6.05a12.1,12.1,0,0,1,8.089,2.658,8.451,8.451,0,0,1,2.808,7.745,13.927,13.927,0,0,1-2.552,6.558m-2.767-28.154L594.3,24.164,578.51,16.249l1.926-3.279Z" transform="translate(-253.304 -5.781)" fill="#c1272d"/><path d="M668.846,29.026l-7.4,3.893L659.219,54.2l-2.351,2.128h-5.959l.432-4.136h3.831l1.756-16.785-6.565,3.467-1.7-3.527,8.761-4.683L658.758,17.9h-7.116l.433-4.135h7.055l1.221-11.677h4.318l-1.221,11.677h6.507l-.433,4.135h-6.507l-1.087,10.4,5.279-2.8Zm32.677,22.5a41.133,41.133,0,0,1-14.267-13.623l-1.945,18.609h-4.318l1.94-18.548a85.115,85.115,0,0,1-16.648,13.8L664.276,48.3A81.481,81.481,0,0,0,680.7,34.317H667.2l.433-4.135h15.994l.738-7.055h4.44l-.738,7.055h16.968l-.432,4.135H690.186a38.94,38.94,0,0,0,13.732,13.5Zm-20.213-31.2L677.717,22.7l-4.877-8.027,3.654-2.372Zm22.972-13.8c-10.417,1.338-20.615,2.311-30.707,2.858l.25-4.135c9.728-.548,19.857-1.46,30.336-2.8ZM691.473,17.958l-3.648,2.311-4.1-7.3,3.7-2.25Zm14.933-6.142-9.493,10.521-3-2.676L703.4,9.14Z" transform="translate(-289.134 -0.929)" fill="#c1272d"/><path d="M807.373,55.5l-2.554,2.311h-7.3l.445-4.257h5.169l1.3-12.407H788.379L786.762,56.6h-4.439l1.615-15.447H767.944q-2.9,11.13-8.236,17.7l-3.395-2.433c5.161-6.325,7.764-15.508,8.558-23.11l2.818-26.941h44.821Zm-23-18.488,1.2-11.433H770.119c-.667,6.386-1.122,10.156-1.318,11.433ZM786,21.446l1.132-10.825H771.683l-1.131,10.825Zm18.868,15.569,1.2-11.433H790.006l-1.2,11.433Zm1.628-15.569,1.131-10.825H791.57l-1.131,10.825Z" transform="translate(-337.118 -2.837)" fill="#c1272d"/><path d="M909.768,21.5h-14.3L894.7,28.8h13.965l-.372,3.562H894.328l-.709,6.784H906.17l-.377,3.618H893.24l-.608,5.824a10.11,10.11,0,0,1-3.462,6.614,9.942,9.942,0,0,1-6.842,2.714A8.1,8.1,0,0,1,876,55.142a8.2,8.2,0,0,1-2.08-6.613,10.106,10.106,0,0,1,3.463-6.615,10,10,0,0,1,6.9-2.77H890l.71-6.784H872.167l.372-3.562h18.544l.762-7.292H873.754l.385-3.674H892.23l.615-5.88h3.619l-.615,5.88h14.3ZM889.623,42.761h-5.711a6.588,6.588,0,0,0-6.37,5.767,5.118,5.118,0,0,0,5.164,5.767,6.473,6.473,0,0,0,6.307-5.71Z" transform="translate(-388.759 -5.327)" fill="#c1272d"/><path d="M996.777,24.657h-6.9a34.614,34.614,0,0,0-10.4,6.954c-3.345,3.336-5.244,6.9-5.64,10.685A12.389,12.389,0,0,0,977.32,52.3a24.4,24.4,0,0,0,9.048,5.936L984.582,61.8A26.013,26.013,0,0,1,973.93,54.45a15.861,15.861,0,0,1-3.8-12.268,20.355,20.355,0,0,1,4.1-10.006,33.046,33.046,0,0,1,8.194-7.519H957.2l.39-3.731h39.577Zm-7.715,13.229h-4.015l.455-4.353h4.014Zm7.519,0h-4.014l.454-4.353h4.014Z" transform="translate(-426.662 -9.328)" fill="#c1272d"/><path d="M1082.909,34.968a72.534,72.534,0,0,0-9.991,2.545,30.253,30.253,0,0,1,.122,8.027h-3.561a26.106,26.106,0,0,0-.044-6.615q-8.9,3.987-9.385,8.65c-.212,2.035.871,3.562,3.2,4.579a15.294,15.294,0,0,0,6.208,1.187h9.216L1078.3,56.9h-9.216a18.255,18.255,0,0,1-8.782-1.979,6.952,6.952,0,0,1-3.936-7.236c.266-2.545,1.77-5.032,4.443-7.349a27.386,27.386,0,0,1,7.621-4.749c-1.171-2.318-3.592-3.505-7.153-3.505a39.527,39.527,0,0,0-6.929.848l-5.371,9.724-3.181-1.47,10.6-19.222h-9.329l.384-3.675h10.968l3.837-6.954,3.177,1.527-3,5.427h20.3l-.385,3.675h-21.937l-3.9,7.067a34.239,34.239,0,0,1,5.141-.509c5.145,0,8.568,1.866,10.263,5.654a69.279,69.279,0,0,1,10.7-2.827Z" transform="translate(-466.151 -5.053)" fill="#c1272d"/></g></g></svg>