<svg xmlns="http://www.w3.org/2000/svg" width="155.497" height="151.008" viewBox="0 0 155.497 151.008"><g transform="translate(-53.548 -108.075) rotate(-22)"><g transform="translate(-3.371 162.067)" fill="#fff" stroke="#c9b772" stroke-width="5"><circle cx="58" cy="58" r="58" stroke="none"/><circle cx="58" cy="58" r="55.5" fill="none"/></g><path d="M-16.05-21.05l2,2.325q-1.45.4-3.15.725t-3.525.562q-1.825.238-3.65.388t-3.55.25a5.413,5.413,0,0,0-.3-1.212A12.491,12.491,0,0,0-28.7-19.2q1.7-.125,3.437-.287t3.413-.4q1.675-.238,3.163-.538T-16.05-21.05Zm-12.3,5.4,2.4-.625a22.114,22.114,0,0,1,1.025,2.425,14.986,14.986,0,0,1,.65,2.275l-2.55.75a13.627,13.627,0,0,0-.562-2.312A22.946,22.946,0,0,0-28.35-15.65Zm4.85-.75,2.5-.475a16.89,16.89,0,0,1,.775,2.35,10.234,10.234,0,0,1,.35,2.2l-2.65.55a13.3,13.3,0,0,0-.288-2.2A15.583,15.583,0,0,0-23.5-16.4Zm7.3-.9,2.825,1q-.55,1.075-1.137,2.163t-1.175,2.075q-.588.987-1.113,1.737l-2.325-.925q.5-.8,1.05-1.85t1.05-2.15Q-16.525-16.35-16.2-17.3ZM-28.35-8.725h14.775v2.6H-28.35Zm5.875-2.575h2.825V2.05h-2.825Zm-.9,4.075,2.325.8a17.8,17.8,0,0,1-1.838,2.988A19.386,19.386,0,0,1-25.275-.813a14.235,14.235,0,0,1-2.7,1.963A9.586,9.586,0,0,0-28.55.363q-.35-.438-.725-.85a5.53,5.53,0,0,0-.7-.663,14.42,14.42,0,0,0,2.612-1.575,15.46,15.46,0,0,0,2.3-2.125A12.872,12.872,0,0,0-23.375-7.225Zm4.6.1a14.484,14.484,0,0,0,1.55,2.275,15.649,15.649,0,0,0,2.063,2.075,12.887,12.887,0,0,0,2.288,1.55,8.034,8.034,0,0,0-.687.663q-.388.413-.725.825a8.377,8.377,0,0,0-.563.762A14.534,14.534,0,0,1-17.225-.938a20.6,20.6,0,0,1-2.138-2.55A19.56,19.56,0,0,1-21.05-6.325Zm-18.2-1.55q1.5-.325,3.587-.875t4.213-1.15L-28.8-8q-1.925.575-3.888,1.15T-36.325-5.8Zm.4-7.825h7.65v2.75h-7.65Zm2.625-4.725h2.75v20.3A5.132,5.132,0,0,1-31.413.713a1.786,1.786,0,0,1-.788.963,3.537,3.537,0,0,1-1.388.475,12.78,12.78,0,0,1-2.087.1A8,8,0,0,0-35.95.888a9.489,9.489,0,0,0-.5-1.413q.7.025,1.288.038A7.291,7.291,0,0,0-34.35-.5a.438.438,0,0,0,.313-.087.483.483,0,0,0,.087-.337Zm26.725,1.65H8.1V-16.7H-7.225Zm0,5.775H8.15V-11H-7.225Zm-.05,5.9H8.25v2.825H-7.275ZM-8.95-19.575H-6v9Q-6-9.1-6.125-7.35a26.953,26.953,0,0,1-.488,3.512A16.322,16.322,0,0,1-7.687-.475,10.461,10.461,0,0,1-9.55,2.375a4.256,4.256,0,0,0-.675-.675q-.45-.375-.912-.725t-.788-.55A9.149,9.149,0,0,0-10.3-2.062a13.4,13.4,0,0,0,.887-2.825,21.943,21.943,0,0,0,.375-2.925q.088-1.462.088-2.788Zm16,0h3V-1.3A4.635,4.635,0,0,1,9.75.563,2.037,2.037,0,0,1,8.675,1.575a5.741,5.741,0,0,1-1.925.45q-1.175.1-2.9.075A7.173,7.173,0,0,0,3.475.65a11.139,11.139,0,0,0-.6-1.425q.725.025,1.45.037t1.288.013h.813A.729.729,0,0,0,6.913-.85a.634.634,0,0,0,.138-.475Zm-8.3,1.15H1.775V1.925H-1.25Zm18.175,1.05h14.9v-1h-16.7v-1.75h19.4v4.5h-17.6Zm-.85,0h2.8q-.4,1.2-.85,2.488T17.2-12.65l-2.725-.175q.425-.95.85-2.187T16.075-17.375Zm.25,2.725h18v1.75H15.8Zm17,0H36.15l-.013.275q-.013.275-.013.5a15.808,15.808,0,0,1-.25,1.925,2.385,2.385,0,0,1-.475,1.075,1.887,1.887,0,0,1-.662.425,2.624,2.624,0,0,1-.788.175q-.375.025-1,.025t-1.375-.025a4.241,4.241,0,0,0-.175-.913,6.3,6.3,0,0,0-.325-.887q.45.05.813.075a3.1,3.1,0,0,0,.563,0,1.553,1.553,0,0,0,.3-.025.387.387,0,0,0,.225-.15,1.239,1.239,0,0,0,.225-.65q.075-.5.125-1.525ZM20.85-21.25h2.725v5.175a9.2,9.2,0,0,1-.325,2.488,5.01,5.01,0,0,1-1.225,2.113,7.435,7.435,0,0,1-2.6,1.65A19.974,19.974,0,0,1,14.95-8.7a5.734,5.734,0,0,0-.375-.762q-.25-.437-.525-.863a5.445,5.445,0,0,0-.525-.7,19.666,19.666,0,0,0,3.85-.8,6.715,6.715,0,0,0,2.2-1.15,3.288,3.288,0,0,0,1.013-1.437,5.385,5.385,0,0,0,.262-1.713Zm5.525,0H29.2v10.1H26.375ZM19.725-6.925v1h10.8v-1Zm0,2.6v1.05h10.8v-1.05Zm0-5.2v1h10.8v-1Zm-2.925-1.7H33.575v9.65H16.8ZM26.4-.4l2.4-1.5q1.35.425,2.763.913t2.687.963q1.275.475,2.175.85l-3.35,1.45q-.725-.375-1.8-.838T28.95.5Q27.7.025,26.4-.4ZM20.9-1.875l2.675,1.2A21.044,21.044,0,0,1,21.2.5q-1.35.575-2.763,1.05t-2.712.775a7.749,7.749,0,0,0-.625-.712q-.4-.412-.8-.8a6.674,6.674,0,0,0-.75-.638Q14.9-.05,16.263-.363t2.563-.7A16.135,16.135,0,0,0,20.9-1.875Zm-79.046,20.2h17.127v3.6H-58.146Zm-6.138,5.973h29.568v3.7H-64.284Zm7.986,2.97h4.29a26.715,26.715,0,0,1-.759,4.241,11.038,11.038,0,0,1-1.667,3.564,10.667,10.667,0,0,1-3.185,2.854,19.951,19.951,0,0,1-5.28,2.112,8.234,8.234,0,0,0-.577-1.188,15.389,15.389,0,0,0-.842-1.3,6.867,6.867,0,0,0-.891-1.039,18.592,18.592,0,0,0,4.537-1.518A7.664,7.664,0,0,0-58.1,32.958a7.2,7.2,0,0,0,1.254-2.574A19.747,19.747,0,0,0-56.3,27.265Zm8.514-.66h3.993v8.052q0,.792.248,1.007a1.948,1.948,0,0,0,1.139.214h3.3a1.136,1.136,0,0,0,.808-.264,1.992,1.992,0,0,0,.4-1.139q.115-.874.181-2.59a7.535,7.535,0,0,0,1.056.594,12.408,12.408,0,0,0,1.3.528q.677.231,1.2.4a14.594,14.594,0,0,1-.693,3.713,3.333,3.333,0,0,1-1.4,1.848,5.1,5.1,0,0,1-2.492.511H-43a8.018,8.018,0,0,1-2.953-.429,2.486,2.486,0,0,1-1.436-1.485,8.287,8.287,0,0,1-.4-2.838ZM-51.711,8.983h4.224v6.006h-4.224ZM-63.69,12.151h28.347V20h-4.224V15.913h-20.1V20H-63.69Zm47.058.561A29.241,29.241,0,0,1-19.074,15.7a41.355,41.355,0,0,1-3.135,3.036,43.065,43.065,0,0,1-3.646,2.854,42.689,42.689,0,0,1-3.977,2.475,10.977,10.977,0,0,0-1.105-1.633,12.452,12.452,0,0,0-1.4-1.535,35.325,35.325,0,0,0,5.478-3.514,39.154,39.154,0,0,0,4.686-4.274,26.985,26.985,0,0,0,3.3-4.257h4.125a32.484,32.484,0,0,0,2.97,3.63A37.257,37.257,0,0,0-8.3,15.731a34.147,34.147,0,0,0,3.8,2.706A31.5,31.5,0,0,0-.561,20.5,13.33,13.33,0,0,0-1.98,22.183q-.66.924-1.221,1.848-1.881-1.056-3.828-2.392T-10.758,18.8q-1.782-1.5-3.3-3.053A25.566,25.566,0,0,1-16.632,12.712Zm-11.187,15.51H-5.247v3.432H-27.819Zm1.683-7.326H-6.765v3.5H-26.136Zm-4.356,14.751H-2.277v3.531H-30.492Zm11.814-13.2h4.158V37.594h-4.158ZM7.755,8.95,11.649,10.1a27.059,27.059,0,0,1-2.112,3.564A28.254,28.254,0,0,1,6.914,16.9,28.7,28.7,0,0,1,4.125,19.51a7.3,7.3,0,0,0-.924-.891q-.594-.495-1.221-.957T.891,16.9a19.493,19.493,0,0,0,3.96-3.5A18,18,0,0,0,7.755,8.95Zm-.264,3.5H30.228v3.465H6.534ZM1.617,20.137H31.449v3.531H1.617Zm.528,7.722H30.954V31.39H2.145Zm9.8-14.19h3.3V29.707h-3.3Zm-5.874,0H9.6V29.74H6.072Zm11.616,0h3.3V29.74h-3.3Zm5.808,0h3.63V29.74H23.5ZM10.956,33.238l3.663-.4q.33,1.485.578,3.234a26.942,26.942,0,0,1,.28,2.97l-3.894.561q0-.792-.082-1.881t-.215-2.277Q11.154,34.261,10.956,33.238Zm6.567.1,3.7-.627q.429.957.825,2.079t.693,2.178a16.3,16.3,0,0,1,.429,1.914l-3.96.759a24.728,24.728,0,0,0-.644-3Q18.084,34.855,17.523,33.337Zm6.534-.2,3.8-1.188q.792,1.023,1.584,2.211t1.518,2.36a16.149,16.149,0,0,1,1.122,2.1L28.017,39.97a21.541,21.541,0,0,0-1.007-2.079q-.644-1.188-1.419-2.425T24.057,33.139ZM5.016,32.083l3.828.957A20.916,20.916,0,0,1,7.293,36.8,14.907,14.907,0,0,1,5.082,40l-3.8-1.551a12.482,12.482,0,0,0,2.145-2.805A16.991,16.991,0,0,0,5.016,32.083ZM39.27,9.115H42.9V39.871H39.27ZM34.254,19.972h13.53v3.7H34.254Zm4.29,1.947,2.211,1.089q-.429,1.65-.99,3.482t-1.254,3.646q-.693,1.815-1.452,3.415a17.754,17.754,0,0,1-1.617,2.789,10.289,10.289,0,0,0-.479-1.369q-.313-.742-.66-1.469t-.644-1.254a18.174,18.174,0,0,0,1.931-3.02q.941-1.8,1.733-3.729A28.237,28.237,0,0,0,38.544,21.919Zm4.323,1.914q.264.264.776.825t1.139,1.271q.627.709,1.2,1.419t1.056,1.271a10.2,10.2,0,0,1,.677.858l-2.409,3.1q-.33-.726-.858-1.7T43.3,28.865q-.627-1.039-1.221-1.963t-1.023-1.518ZM34.221,11.656l2.772-.726a26.539,26.539,0,0,1,.776,2.574q.346,1.386.577,2.706t.33,2.376l-2.97.792a19.017,19.017,0,0,0-.248-2.392q-.215-1.336-.528-2.739A26.463,26.463,0,0,0,34.221,11.656Zm10.857-.891,3.333.726q-.4,1.353-.858,2.772t-.924,2.722q-.462,1.3-.858,2.294l-2.508-.726q.363-1.056.709-2.426t.644-2.788Q44.913,11.92,45.078,10.765ZM57.585,8.95h3.7V39.937h-3.7ZM47.718,29.608,64.68,26.572l.594,3.663L48.312,33.3Zm1.848-16.17,1.947-2.673q.924.528,1.931,1.221T55.357,13.4a10.281,10.281,0,0,1,1.436,1.353l-2.046,2.97a9.475,9.475,0,0,0-1.369-1.419q-.875-.759-1.865-1.518T49.566,13.438Zm-1.485,8.316,1.848-2.838a22.279,22.279,0,0,1,2.046,1.171q1.056.677,2.013,1.353a10.453,10.453,0,0,1,1.551,1.3l-2.013,3.168a10.547,10.547,0,0,0-1.452-1.369q-.924-.742-1.963-1.485A23.091,23.091,0,0,0,48.081,21.754Z" transform="translate(54.629 209.067)" fill="#c2272d" stroke="#fff" stroke-width="6"/><path d="M-16.05-21.05l2,2.325q-1.45.4-3.15.725t-3.525.562q-1.825.238-3.65.388t-3.55.25a5.413,5.413,0,0,0-.3-1.212A12.491,12.491,0,0,0-28.7-19.2q1.7-.125,3.437-.287t3.413-.4q1.675-.238,3.163-.538T-16.05-21.05Zm-12.3,5.4,2.4-.625a22.114,22.114,0,0,1,1.025,2.425,14.986,14.986,0,0,1,.65,2.275l-2.55.75a13.627,13.627,0,0,0-.562-2.312A22.946,22.946,0,0,0-28.35-15.65Zm4.85-.75,2.5-.475a16.89,16.89,0,0,1,.775,2.35,10.234,10.234,0,0,1,.35,2.2l-2.65.55a13.3,13.3,0,0,0-.288-2.2A15.583,15.583,0,0,0-23.5-16.4Zm7.3-.9,2.825,1q-.55,1.075-1.137,2.163t-1.175,2.075q-.588.987-1.113,1.737l-2.325-.925q.5-.8,1.05-1.85t1.05-2.15Q-16.525-16.35-16.2-17.3ZM-28.35-8.725h14.775v2.6H-28.35Zm5.875-2.575h2.825V2.05h-2.825Zm-.9,4.075,2.325.8a17.8,17.8,0,0,1-1.838,2.988A19.386,19.386,0,0,1-25.275-.813a14.235,14.235,0,0,1-2.7,1.963A9.586,9.586,0,0,0-28.55.363q-.35-.438-.725-.85a5.53,5.53,0,0,0-.7-.663,14.42,14.42,0,0,0,2.612-1.575,15.46,15.46,0,0,0,2.3-2.125A12.872,12.872,0,0,0-23.375-7.225Zm4.6.1a14.484,14.484,0,0,0,1.55,2.275,15.649,15.649,0,0,0,2.063,2.075,12.887,12.887,0,0,0,2.288,1.55,8.034,8.034,0,0,0-.687.663q-.388.413-.725.825a8.377,8.377,0,0,0-.563.762A14.534,14.534,0,0,1-17.225-.938a20.6,20.6,0,0,1-2.138-2.55A19.56,19.56,0,0,1-21.05-6.325Zm-18.2-1.55q1.5-.325,3.587-.875t4.213-1.15L-28.8-8q-1.925.575-3.888,1.15T-36.325-5.8Zm.4-7.825h7.65v2.75h-7.65Zm2.625-4.725h2.75v20.3A5.132,5.132,0,0,1-31.413.713a1.786,1.786,0,0,1-.788.963,3.537,3.537,0,0,1-1.388.475,12.78,12.78,0,0,1-2.087.1A8,8,0,0,0-35.95.888a9.489,9.489,0,0,0-.5-1.413q.7.025,1.288.038A7.291,7.291,0,0,0-34.35-.5a.438.438,0,0,0,.313-.087.483.483,0,0,0,.087-.337Zm26.725,1.65H8.1V-16.7H-7.225Zm0,5.775H8.15V-11H-7.225Zm-.05,5.9H8.25v2.825H-7.275ZM-8.95-19.575H-6v9Q-6-9.1-6.125-7.35a26.953,26.953,0,0,1-.488,3.512A16.322,16.322,0,0,1-7.687-.475,10.461,10.461,0,0,1-9.55,2.375a4.256,4.256,0,0,0-.675-.675q-.45-.375-.912-.725t-.788-.55A9.149,9.149,0,0,0-10.3-2.062a13.4,13.4,0,0,0,.887-2.825,21.943,21.943,0,0,0,.375-2.925q.088-1.462.088-2.788Zm16,0h3V-1.3A4.635,4.635,0,0,1,9.75.563,2.037,2.037,0,0,1,8.675,1.575a5.741,5.741,0,0,1-1.925.45q-1.175.1-2.9.075A7.173,7.173,0,0,0,3.475.65a11.139,11.139,0,0,0-.6-1.425q.725.025,1.45.037t1.288.013h.813A.729.729,0,0,0,6.913-.85a.634.634,0,0,0,.138-.475Zm-8.3,1.15H1.775V1.925H-1.25Zm18.175,1.05h14.9v-1h-16.7v-1.75h19.4v4.5h-17.6Zm-.85,0h2.8q-.4,1.2-.85,2.488T17.2-12.65l-2.725-.175q.425-.95.85-2.187T16.075-17.375Zm.25,2.725h18v1.75H15.8Zm17,0H36.15l-.013.275q-.013.275-.013.5a15.808,15.808,0,0,1-.25,1.925,2.385,2.385,0,0,1-.475,1.075,1.887,1.887,0,0,1-.662.425,2.624,2.624,0,0,1-.788.175q-.375.025-1,.025t-1.375-.025a4.241,4.241,0,0,0-.175-.913,6.3,6.3,0,0,0-.325-.887q.45.05.813.075a3.1,3.1,0,0,0,.563,0,1.553,1.553,0,0,0,.3-.025.387.387,0,0,0,.225-.15,1.239,1.239,0,0,0,.225-.65q.075-.5.125-1.525ZM20.85-21.25h2.725v5.175a9.2,9.2,0,0,1-.325,2.488,5.01,5.01,0,0,1-1.225,2.113,7.435,7.435,0,0,1-2.6,1.65A19.974,19.974,0,0,1,14.95-8.7a5.734,5.734,0,0,0-.375-.762q-.25-.437-.525-.863a5.445,5.445,0,0,0-.525-.7,19.666,19.666,0,0,0,3.85-.8,6.715,6.715,0,0,0,2.2-1.15,3.288,3.288,0,0,0,1.013-1.437,5.385,5.385,0,0,0,.262-1.713Zm5.525,0H29.2v10.1H26.375ZM19.725-6.925v1h10.8v-1Zm0,2.6v1.05h10.8v-1.05Zm0-5.2v1h10.8v-1Zm-2.925-1.7H33.575v9.65H16.8ZM26.4-.4l2.4-1.5q1.35.425,2.763.913t2.687.963q1.275.475,2.175.85l-3.35,1.45q-.725-.375-1.8-.838T28.95.5Q27.7.025,26.4-.4ZM20.9-1.875l2.675,1.2A21.044,21.044,0,0,1,21.2.5q-1.35.575-2.763,1.05t-2.712.775a7.749,7.749,0,0,0-.625-.712q-.4-.412-.8-.8a6.674,6.674,0,0,0-.75-.638Q14.9-.05,16.263-.363t2.563-.7A16.135,16.135,0,0,0,20.9-1.875Zm-79.046,20.2h17.127v3.6H-58.146Zm-6.138,5.973h29.568v3.7H-64.284Zm7.986,2.97h4.29a26.715,26.715,0,0,1-.759,4.241,11.038,11.038,0,0,1-1.667,3.564,10.667,10.667,0,0,1-3.185,2.854,19.951,19.951,0,0,1-5.28,2.112,8.234,8.234,0,0,0-.577-1.188,15.389,15.389,0,0,0-.842-1.3,6.867,6.867,0,0,0-.891-1.039,18.592,18.592,0,0,0,4.537-1.518A7.664,7.664,0,0,0-58.1,32.958a7.2,7.2,0,0,0,1.254-2.574A19.747,19.747,0,0,0-56.3,27.265Zm8.514-.66h3.993v8.052q0,.792.248,1.007a1.948,1.948,0,0,0,1.139.214h3.3a1.136,1.136,0,0,0,.808-.264,1.992,1.992,0,0,0,.4-1.139q.115-.874.181-2.59a7.535,7.535,0,0,0,1.056.594,12.408,12.408,0,0,0,1.3.528q.677.231,1.2.4a14.594,14.594,0,0,1-.693,3.713,3.333,3.333,0,0,1-1.4,1.848,5.1,5.1,0,0,1-2.492.511H-43a8.018,8.018,0,0,1-2.953-.429,2.486,2.486,0,0,1-1.436-1.485,8.287,8.287,0,0,1-.4-2.838ZM-51.711,8.983h4.224v6.006h-4.224ZM-63.69,12.151h28.347V20h-4.224V15.913h-20.1V20H-63.69Zm47.058.561A29.241,29.241,0,0,1-19.074,15.7a41.355,41.355,0,0,1-3.135,3.036,43.065,43.065,0,0,1-3.646,2.854,42.689,42.689,0,0,1-3.977,2.475,10.977,10.977,0,0,0-1.105-1.633,12.452,12.452,0,0,0-1.4-1.535,35.325,35.325,0,0,0,5.478-3.514,39.154,39.154,0,0,0,4.686-4.274,26.985,26.985,0,0,0,3.3-4.257h4.125a32.484,32.484,0,0,0,2.97,3.63A37.257,37.257,0,0,0-8.3,15.731a34.147,34.147,0,0,0,3.8,2.706A31.5,31.5,0,0,0-.561,20.5,13.33,13.33,0,0,0-1.98,22.183q-.66.924-1.221,1.848-1.881-1.056-3.828-2.392T-10.758,18.8q-1.782-1.5-3.3-3.053A25.566,25.566,0,0,1-16.632,12.712Zm-11.187,15.51H-5.247v3.432H-27.819Zm1.683-7.326H-6.765v3.5H-26.136Zm-4.356,14.751H-2.277v3.531H-30.492Zm11.814-13.2h4.158V37.594h-4.158ZM7.755,8.95,11.649,10.1a27.059,27.059,0,0,1-2.112,3.564A28.254,28.254,0,0,1,6.914,16.9,28.7,28.7,0,0,1,4.125,19.51a7.3,7.3,0,0,0-.924-.891q-.594-.495-1.221-.957T.891,16.9a19.493,19.493,0,0,0,3.96-3.5A18,18,0,0,0,7.755,8.95Zm-.264,3.5H30.228v3.465H6.534ZM1.617,20.137H31.449v3.531H1.617Zm.528,7.722H30.954V31.39H2.145Zm9.8-14.19h3.3V29.707h-3.3Zm-5.874,0H9.6V29.74H6.072Zm11.616,0h3.3V29.74h-3.3Zm5.808,0h3.63V29.74H23.5ZM10.956,33.238l3.663-.4q.33,1.485.578,3.234a26.942,26.942,0,0,1,.28,2.97l-3.894.561q0-.792-.082-1.881t-.215-2.277Q11.154,34.261,10.956,33.238Zm6.567.1,3.7-.627q.429.957.825,2.079t.693,2.178a16.3,16.3,0,0,1,.429,1.914l-3.96.759a24.728,24.728,0,0,0-.644-3Q18.084,34.855,17.523,33.337Zm6.534-.2,3.8-1.188q.792,1.023,1.584,2.211t1.518,2.36a16.149,16.149,0,0,1,1.122,2.1L28.017,39.97a21.541,21.541,0,0,0-1.007-2.079q-.644-1.188-1.419-2.425T24.057,33.139ZM5.016,32.083l3.828.957A20.916,20.916,0,0,1,7.293,36.8,14.907,14.907,0,0,1,5.082,40l-3.8-1.551a12.482,12.482,0,0,0,2.145-2.805A16.991,16.991,0,0,0,5.016,32.083ZM39.27,9.115H42.9V39.871H39.27ZM34.254,19.972h13.53v3.7H34.254Zm4.29,1.947,2.211,1.089q-.429,1.65-.99,3.482t-1.254,3.646q-.693,1.815-1.452,3.415a17.754,17.754,0,0,1-1.617,2.789,10.289,10.289,0,0,0-.479-1.369q-.313-.742-.66-1.469t-.644-1.254a18.174,18.174,0,0,0,1.931-3.02q.941-1.8,1.733-3.729A28.237,28.237,0,0,0,38.544,21.919Zm4.323,1.914q.264.264.776.825t1.139,1.271q.627.709,1.2,1.419t1.056,1.271a10.2,10.2,0,0,1,.677.858l-2.409,3.1q-.33-.726-.858-1.7T43.3,28.865q-.627-1.039-1.221-1.963t-1.023-1.518ZM34.221,11.656l2.772-.726a26.539,26.539,0,0,1,.776,2.574q.346,1.386.577,2.706t.33,2.376l-2.97.792a19.017,19.017,0,0,0-.248-2.392q-.215-1.336-.528-2.739A26.463,26.463,0,0,0,34.221,11.656Zm10.857-.891,3.333.726q-.4,1.353-.858,2.772t-.924,2.722q-.462,1.3-.858,2.294l-2.508-.726q.363-1.056.709-2.426t.644-2.788Q44.913,11.92,45.078,10.765ZM57.585,8.95h3.7V39.937h-3.7ZM47.718,29.608,64.68,26.572l.594,3.663L48.312,33.3Zm1.848-16.17,1.947-2.673q.924.528,1.931,1.221T55.357,13.4a10.281,10.281,0,0,1,1.436,1.353l-2.046,2.97a9.475,9.475,0,0,0-1.369-1.419q-.875-.759-1.865-1.518T49.566,13.438Zm-1.485,8.316,1.848-2.838a22.279,22.279,0,0,1,2.046,1.171q1.056.677,2.013,1.353a10.453,10.453,0,0,1,1.551,1.3l-2.013,3.168a10.547,10.547,0,0,0-1.452-1.369q-.924-.742-1.963-1.485A23.091,23.091,0,0,0,48.081,21.754Z" transform="translate(54.629 209.067)" fill="#c2272d"/></g></svg>