<svg xmlns="http://www.w3.org/2000/svg" width="155.064" height="54.161" viewBox="0 0 155.064 54.161"><rect width="155.064" height="54.161" transform="translate(0 0)" fill="#fff"/><g transform="translate(34.024 16.111)"><path d="M41.549,62.266h.667A11.08,11.08,0,0,1,53,51.228v0a11.12,11.12,0,0,0-22.24,0v0A11.08,11.08,0,0,1,41.549,62.266" transform="translate(-30.763 -40.179)" fill="#1fa000"/><path d="M85.1,43.421H83.566v1.434H76.178v1.31h7.388V47.5H77.1v6.265H82.21a15.754,15.754,0,0,1-6.032,3.5v1.478a19.5,19.5,0,0,0,7.388-4.7v4.79H85.1v-4.79a19.494,19.494,0,0,0,7.388,4.7V57.27a15.743,15.743,0,0,1-6.031-3.5h5.108V47.5H85.1v-1.34h7.388v-1.31H85.1Zm-6.587,5.3h5.052v1.365H78.513Zm0,2.462h5.052V52.55H78.513ZM90.152,52.55H85.1V51.184h5.053Zm0-2.462H85.1V48.722h5.053Z" transform="translate(-45.02 -41.212)" fill="#89617b"/><path d="M107.449,59.025a15.728,15.728,0,0,1-3.718,3v1.6a20.818,20.818,0,0,0,5.612-4.595Z" transform="translate(-53.67 -46.185)" fill="#89617b"/><path d="M121,59.025h-1.793a19.386,19.386,0,0,0,5.692,4.591v-1.6a19.667,19.667,0,0,1-3.9-3" transform="translate(-58.529 -46.185)" fill="#89617b"/><path d="M117.808,54.579H119.3V49.547h-13.56v5.032h5.982v4.19c0,.559-.31.711-.753.711H109.1v1.31h2.238c1.386,0,1.971-.642,1.971-1.607v-4.6Zm-10.585-3.813h10.584V53.36H107.223Z" transform="translate(-54.3 -43.164)" fill="#89617b"/><path d="M112.684,43.421h-1.6v1.434h-7.357v1.31h16.31v-1.31h-7.357Z" transform="translate(-53.671 -41.212)" fill="#89617b"/><path d="M151.593,49.521l1.877-5.8h-6.71V58.627h1.288V44.952h3.717L150.223,49.6s2.029,2.25,2.029,4.333a1.9,1.9,0,0,1-1.894,2.032h-1.133v1.293h1.1a3.258,3.258,0,0,0,3.3-3.343c0-2.267-2.029-4.4-2.029-4.4" transform="translate(-67.179 -41.307)" fill="#89617b"/><path d="M139.591,43.566a12.437,12.437,0,0,1-.5,1.23h-2.993V43.241h-1.38V44.8h-3.122v1.158h3.122v2.424h-3.6v1.158h4.252a17.573,17.573,0,0,1-3.771,2.395v1.4c.279-.127.574-.274.873-.43v5.573H140.5V51.1h-5.188a18.83,18.83,0,0,0,1.822-1.565H140.5V48.379h-2.284a13.681,13.681,0,0,0,2.7-4.813Zm-.367,13.873h-5.379V55.306h5.379Zm0-3.168h-5.379V52.138h5.379Zm-3.131-5.891V45.955h2.377a13.719,13.719,0,0,1-1.864,2.424Z" transform="translate(-62.265 -41.155)" fill="#89617b"/></g></svg>