<svg xmlns="http://www.w3.org/2000/svg" width="704.772" height="185.615" viewBox="0 0 704.772 185.615"><g transform="translate(75 -113.651)"><path d="M286.178,193.824H257.907l-5.214,49.858h-5.871l5.828-55.73h34.142Z" transform="translate(-179.986 -74.302)" fill="#c1272d"/><path d="M374.011,268.457H332.623c-5.479,0-9.8-1.761-13.048-5.284-3.241-3.62-4.532-8.121-3.949-13.7.491-4.7,2.527-9.2,6.02-13.6a37.125,37.125,0,0,1,11.766-9.588l2.635,5.675a30.569,30.569,0,0,0-9.171,7.24c-2.8,3.424-4.435,6.849-4.793,10.273-.777,7.437,3.788,12.426,11.225,12.426H374.7Zm2.716-56.847H322.62l.675-6.458H377.4Z" transform="translate(-218.393 -69.842)" fill="#c1272d"/><path d="M524.229,257.679H514.64c-8.513,0-12.229-4.7-11.246-14.09l3.09-29.549c.338-3.229-.369-4.892-2.13-4.892-1.175,0-2.811.685-4.9,1.957-.735.49-3.818,2.838-9.063,7.143l-17.205,13.894L469.663,265.8h-6.458l2.894-27.69-18.276,14.775-3.706-4.794L467,229.5l1.412-13.5H449.138l.665-6.36h19.276l2.138-20.449h6.458l-3.612,34.539,13.9-11.252,8.307-6.458c3.248-2.055,6.1-3.131,8.743-3.131a7.219,7.219,0,0,1,6.588,3.424,12.727,12.727,0,0,1,1.246,7.73l-3.09,29.549c-.276,2.642-.09,4.6.668,5.772q1.253,2.055,5.069,2.055h9.393Z" transform="translate(-276.855 -62.587)" fill="#c1272d"/><path d="M657.159,252.624a32.055,32.055,0,0,1-22.689,8.317l.665-6.36a25.242,25.242,0,0,0,17.818-6.653,26.848,26.848,0,0,0,8.279-17.416,24.223,24.223,0,0,0-1.812-12.621c-1.986-4.4-5.174-6.653-9.48-6.653h-13.4l-14.2,49.7L616,259.766l13.783-48.53h-13.6l.655-6.262h14.677l5.241-18.3,6.432,1.174-4.922,17.123H650.89c6.164,0,10.857,2.838,13.884,8.512,2.727,4.794,3.69,10.567,3,17.122-.941,9-4.448,16.34-10.619,22.015M687.117,240.3l-6.492,1.272-4.132-46.573,6.591-1.272Z" transform="translate(-354.978 -61.445)" fill="#c1272d"/><path d="M816.3,249.541c-6.451,9.3-17.426,15.068-33.023,17.318l-.226-6.262a59.736,59.736,0,0,0,15.637-4.5q8.8-4.11,12.816-10.274a17.016,17.016,0,0,0,2.93-7.436,9.417,9.417,0,0,0-3.658-9A15.468,15.468,0,0,0,801,226.45c-8.414,0-18.706,3.914-30.982,11.839l-.531,5.088h-6.262l4.369-41.779h6.262l-3.04,29.059c11.783-6.946,22.132-10.469,31.035-10.469,5.772,0,10.4,1.566,14,4.6,3.859,3.327,5.443,7.828,4.86,13.4a24.1,24.1,0,0,1-4.416,11.35m-4.787-48.726-3.246,5.772-27.334-13.7,3.334-5.675Z" transform="translate(-421.891 -61.69)" fill="#c1272d"/><path d="M900.153,299.954h-32.41l.583-5.573h26.837l4.949-47.328h5.573Z" transform="translate(-469.395 -88.886)" fill="#c1272d"/><path d="M961.668,275.985h-5.421l6-57.388h5.42Zm59.134-40.33h-15.7l-1.683,16.1h13.79l-.517,4.942H1002.9l-.792,7.572a12.965,12.965,0,0,1-4.575,8.688,13.6,13.6,0,0,1-9.223,3.587,10.663,10.663,0,0,1-8.383-3.667,10.95,10.95,0,0,1-2.742-8.847,13.2,13.2,0,0,1,4.495-8.688,13.6,13.6,0,0,1,9.223-3.587h7.333l1.683-16.1H977.283l.534-5.1h22.636l1.35-12.912h5.18l-1.35,12.912h15.7ZM997.72,256.7h-7.334a8.317,8.317,0,0,0-8.1,7.333,6.468,6.468,0,0,0,6.567,7.333,8.317,8.317,0,0,0,8.1-7.333Z" transform="translate(-509.621 -75.519)" fill="#c1272d"/><path d="M1088.8,295.081l13.846,15.463-4.642,3.985-13.925-15.462Z" transform="translate(-567.723 -110.716)" fill="#c1272d"/><path d="M59.653,421.958A58.03,58.03,0,0,1,40.1,433.015l-1.842-5.773a57.253,57.253,0,0,0,16.236-9.295c5.471-4.6,8.459-9.785,9.052-15.459.552-5.284-1.2-10.078-5.335-14.481-9.85,8.121-20.262,16.927-31.126,26.32L20.426,420c-5.136,4.207-9.445,7.045-11.891,7.045-1.858,0-3.584-1.272-5.286-3.718C.625,419.415-.439,414.621.165,408.848.87,402.1,3.884,395.737,9.1,389.866a45.163,45.163,0,0,1,17.619-12.23l1.177-11.252H2.354l.655-6.262H28.547l1.3-12.426h6.36l-1.3,12.426H73.457l-.655,6.262H34.252l-.952,9.1a39.312,39.312,0,0,1,8.115-.88A29.966,29.966,0,0,1,62.22,382.43c5.973,5.578,8.593,12.329,7.754,20.352-.747,7.143-4.162,13.6-10.322,19.177m-19-41a30.506,30.506,0,0,0-8.038,1.076L30.578,401.51H24.219l1.76-16.83a39.386,39.386,0,0,0-12.874,9.883,25.91,25.91,0,0,0-6.494,14.383c-.747,7.142.538,10.762,3.736,11.056a62.533,62.533,0,0,0,7.432-5.577q9.827-8.366,36.017-30.038a25.2,25.2,0,0,0-13.145-3.424" transform="translate(-75 -134.63)" fill="#c1272d"/><path d="M188.146,373.689h-22.6l-13.276,44.616-6.226-1.272,12.946-43.344H143.04l.655-6.262h17.122l5.127-17.22,6.238,1.174-4.711,16.046H188.8Zm30.215,31.994H200.553l-1,9.589a18.063,18.063,0,0,1-17.39,15.655,13.97,13.97,0,0,1-10.674-4.6,13.778,13.778,0,0,1-3.443-11.056,18.058,18.058,0,0,1,17.4-15.753h9.491l3.325-31.8h21.917l-.655,6.262H203.868L201.2,399.52h17.808Zm-24.07,0H184.8a10.981,10.981,0,0,0-10.494,9.589,8.451,8.451,0,0,0,8.5,9.491,10.882,10.882,0,0,0,10.483-9.491Z" transform="translate(-140.013 -135.771)" fill="#c1272d"/><path d="M346.424,374.717H317.169l-13.6,57.042-6.66-.88,13.6-56.161H295.546l.665-6.36h15.655l3.251-13.307,6.561.88-2.963,12.426h28.374ZM365.16,428.53H341.384a13.82,13.82,0,0,1-10.344-4.011,12.754,12.754,0,0,1-3.21-10.469l.962-9.2h6.36l-.962,9.2c-.521,4.99,2.761,8.218,7.849,8.218h23.775Zm1.575-38.452H334.349l.645-6.164h32.386Z" transform="translate(-209.328 -137.972)" fill="#c1272d"/><path d="M475.563,434.32A26.109,26.109,0,0,1,457.08,441.1l.542-5.181a20.563,20.563,0,0,0,14.514-5.42,21.87,21.87,0,0,0,6.745-14.187,19.729,19.729,0,0,0-1.476-10.282c-1.617-3.586-4.216-5.42-7.722-5.42h-10.92L447.2,441.1l-5.161-.957,11.227-39.534H442.184l.534-5.1h11.956l4.268-14.906,5.24.957L460.174,395.5h10.282c5.022,0,8.845,2.311,11.311,6.934,2.222,3.905,3.006,8.608,2.448,13.948a27.28,27.28,0,0,1-8.651,17.934m19.976-49.257H489.88l.65-6.217h5.659Zm4.429,39.215-5.29,1.036-3.125-34.91,5.29-1.036Zm6.093-39.215H500.4l.65-6.217h5.658Z" transform="translate(-275.908 -148.788)" fill="#c1272d"/><path d="M619.835,401.348H582.264c-2.6,10.861-6.274,19.764-10.8,26.515l-5.132-3.327c6.5-9.784,10.694-25.537,11.86-36.69l1.688-16.144h43.051Zm10.833-39.039L625.7,367.69,604.469,349c-9.4,7.534-18.833,14.481-28.314,20.938l-3.613-5.675c11.159-7.534,21.134-14.97,30.022-22.308l4.686.1ZM617.039,430.9h-6.457l.338-3.229h-22.8l-.368,3.522-6.566.1,2.588-24.754h35.811Zm-3.223-35.615.6-5.773H584.382c-.133,1.272-.435,3.229-.8,5.773Zm1.2-11.448.614-5.871H585.589l-.614,5.871Zm-3.46,37.767.941-9H589.7l-.941,9Zm2.9-54.89H588.918l.624-5.968H615.08Zm21.071,48.335h-6.947l6.824-65.261h6.947Zm15.982,11.839-3.793,3.522H636.268l.716-6.849h7.631l8.359-79.938h7.24Z" transform="translate(-332.404 -132.021)" fill="#c1272d"/><path d="M793.2,430.68c-6.848,10.273-18.647,16.437-35.288,18.394l-.092-5.675a56.531,56.531,0,0,0,16.712-4.5c6.06-2.738,10.646-6.359,13.65-10.762a19.682,19.682,0,0,0,3.583-9,12.827,12.827,0,0,0-5.168-12.329c-3.54-2.641-8.006-3.913-13.485-3.913H744.247l.614-5.871h28.864c7.143,0,12.916,1.859,17.419,5.577,4.942,4.207,7.108,9.686,6.392,16.536A25.734,25.734,0,0,1,793.2,430.68" transform="translate(-413.265 -157.049)" fill="#c1272d"/><path d="M916.572,375.14H904.634a60.382,60.382,0,0,0-17.882,11.937c-5.789,5.772-8.978,11.937-9.663,18.492a21.377,21.377,0,0,0,5.919,17.318c3.767,4.207,8.986,7.631,15.46,10.273l-3,6.262c-18.323-7.241-26.627-18.59-25.02-33.952a35.227,35.227,0,0,1,7.094-17.318,57.213,57.213,0,0,1,14.178-13.013H848.081l.675-6.457h68.49Z" transform="translate(-460.459 -144.168)" fill="#c1272d"/><path d="M1020.508,406.075q-8.7.44-16.306,9.979a53.929,53.929,0,0,0-9.005,17.808l-6.437-.2,7.04-67.316h6.457l-5.187,49.607c6.759-10.372,14.759-15.753,23.9-16.144Zm39.419,19.764-6.5-.489c.411-2.054.713-4.011.927-6.066,1.023-9.784.3-17.808-2.071-24.167-3.141-8.316-9.159-12.523-17.878-12.426l.686-6.555c10.763,0,18.305,4.6,22.529,13.8,3.439,7.338,4.59,16.927,3.372,28.57q-.46,4.4-1.061,7.338" transform="translate(-524.398 -143.108)" fill="#c1272d"/><path d="M1188.25,427.372l-4.342,5.968-25.421-17.024c-2.859-1.663-6.976-4.4-12.447-8.218-5.333-4.207-7.777-8.9-7.215-14.285.543-5.185,3.763-9.785,9.584-13.991.314-.2,4.092-2.642,11.52-7.24,6.182-3.914,15.405-9.784,27.682-17.71l3.475,6.066c-5.662,3.62-14.14,8.9-25.552,16.046-3.129,1.859-7.741,4.794-13.825,8.708-3.485,2.446-5.435,5.186-5.752,8.219s1.158,5.773,4.423,8.22l3.669,2.348Z" transform="translate(-592.568 -137.891)" fill="#c1272d"/><path d="M1265.656,473.106a13.681,13.681,0,0,1-9.391,3.718,11.1,11.1,0,0,1-8.71-3.718,11.236,11.236,0,0,1-2.767-9.1,14.629,14.629,0,0,1,14.158-12.817,10.963,10.963,0,0,1,8.6,3.816,11.088,11.088,0,0,1,2.875,9,13.926,13.926,0,0,1-4.768,9.1m-7.221-17.024a9.127,9.127,0,0,0-8.755,7.925,7.084,7.084,0,0,0,7.1,7.925,9.126,9.126,0,0,0,8.754-7.925,7.083,7.083,0,0,0-7.1-7.925" transform="translate(-640.727 -181.668)" fill="#c1272d"/></g></svg>