<svg xmlns="http://www.w3.org/2000/svg" width="341.692" height="98.968" viewBox="0 0 341.692 98.968"><g transform="translate(115.706 -130.447)"><g transform="translate(-58.706 130.447)"><path d="M265.988,190.812H252.22l-2.539,24.281h-2.859l2.838-27.14h16.627Z" transform="translate(-246.822 -187.953)" fill="#c1272d"/><path d="M343.99,235.981H323.834a7.887,7.887,0,0,1-8.277-9.244,12.774,12.774,0,0,1,2.932-6.623,18.08,18.08,0,0,1,5.73-4.669l1.283,2.764a14.885,14.885,0,0,0-4.466,3.526,9.571,9.571,0,0,0-2.334,5c-.379,3.622,1.845,6.051,5.466,6.051h20.155Zm1.323-27.684h-26.35l.329-3.145h26.35Z" transform="translate(-300.754 -194.604)" fill="#c1272d"/><path d="M483.131,222.542h-4.67c-4.146,0-5.955-2.287-5.477-6.861l1.5-14.39c.164-1.572-.18-2.382-1.037-2.382a5.266,5.266,0,0,0-2.387.953c-.358.239-1.86,1.382-4.414,3.478l-8.379,6.766L456.559,226.5h-3.145l1.41-13.485-8.9,7.2-1.8-2.335,11.143-9.053.688-6.575h-9.387l.324-3.1h9.387l1.041-9.959h3.145l-1.759,16.82,6.767-5.48,4.045-3.145a8.167,8.167,0,0,1,4.258-1.525,3.516,3.516,0,0,1,3.208,1.667,6.2,6.2,0,0,1,.607,3.764l-1.5,14.39a4.563,4.563,0,0,0,.325,2.811,2.667,2.667,0,0,0,2.468,1h4.574Z" transform="translate(-395.212 -182.881)" fill="#c1272d"/><path d="M636.046,218.792A15.61,15.61,0,0,1,625,222.843l.324-3.1A12.292,12.292,0,0,0,634,216.5a13.074,13.074,0,0,0,4.032-8.481,11.8,11.8,0,0,0-.882-6.146,4.855,4.855,0,0,0-4.616-3.24H626l-6.915,24.205L616,222.271l6.712-23.634h-6.623l.319-3.05h7.147l2.552-8.91,3.132.572-2.4,8.339h6.147a7.237,7.237,0,0,1,6.761,4.145,13.685,13.685,0,0,1,1.463,8.338,16.31,16.31,0,0,1-5.171,10.721m14.589-6-3.162.619-2.012-22.681,3.21-.619Z" transform="translate(-521.435 -181.037)" fill="#c1272d"/><path d="M789.07,217.567c-3.142,4.527-8.486,7.338-16.082,8.434l-.11-3.049a29.091,29.091,0,0,0,7.615-2.192,14.517,14.517,0,0,0,6.241-5,8.285,8.285,0,0,0,1.427-3.621,4.586,4.586,0,0,0-1.781-4.384,7.532,7.532,0,0,0-4.758-1.429c-4.1,0-9.11,1.906-15.088,5.766l-.259,2.478h-3.05l2.128-20.346h3.05l-1.48,14.151c5.738-3.383,10.778-5.1,15.114-5.1a10.2,10.2,0,0,1,6.818,2.239,7.123,7.123,0,0,1,2.367,6.528,11.734,11.734,0,0,1-2.151,5.527m-2.331-23.729-1.581,2.811-13.311-6.671,1.623-2.764Z" transform="translate(-629.547 -181.432)" fill="#c1272d"/><path d="M883.527,272.815H867.743l.284-2.714H881.1l2.41-23.048h2.714Z" transform="translate(-706.301 -225.374)" fill="#c1272d"/><path d="M958.887,246.054h-2.64l2.923-27.947h2.639Zm28.8-19.641h-7.647l-.82,7.841h6.716l-.252,2.407h-6.716l-.386,3.687a6.313,6.313,0,0,1-2.228,4.231,6.623,6.623,0,0,1-4.491,1.747,5.192,5.192,0,0,1-4.082-1.786,5.332,5.332,0,0,1-1.335-4.309A6.43,6.43,0,0,1,968.633,236a6.623,6.623,0,0,1,4.491-1.747H976.7l.82-7.841H966.491l.26-2.484h11.024l.657-6.288h2.523l-.657,6.288h7.647Zm-11.241,10.247h-3.571a4.05,4.05,0,0,0-3.945,3.571,3.15,3.15,0,0,0,3.2,3.571,4.05,4.05,0,0,0,3.945-3.571Z" transform="translate(-771.293 -203.776)" fill="#c1272d"/><path d="M1086.382,295.081l6.743,7.53-2.26,1.941-6.781-7.53Z" transform="translate(-865.17 -260.644)" fill="#c1272d"/></g><g transform="translate(-101.72)"><g transform="translate(-13.985 185.912)"><path d="M29.05,383.861a28.259,28.259,0,0,1-9.521,5.384l-.9-2.811a27.879,27.879,0,0,0,7.907-4.526,11.354,11.354,0,0,0,4.408-7.529,8.634,8.634,0,0,0-2.6-7.052c-4.8,3.955-9.867,8.243-15.158,12.818l-3.243,2.763c-2.5,2.049-4.6,3.431-5.791,3.431-.905,0-1.746-.62-2.574-1.81a10.332,10.332,0,0,1-1.5-7.052,16.426,16.426,0,0,1,4.349-9.244,21.994,21.994,0,0,1,8.58-5.956l.573-5.48H1.147l.319-3.049H13.9l.633-6.052h3.1L17,353.747H35.773l-.319,3.049H16.68l-.464,4.431a19.145,19.145,0,0,1,3.952-.429A14.593,14.593,0,0,1,30.3,364.611a11.3,11.3,0,0,1,3.776,9.911,14.457,14.457,0,0,1-5.027,9.339M19.8,363.9a14.859,14.859,0,0,0-3.914.524l-.992,9.482h-3.1l.857-8.2a19.18,19.18,0,0,0-6.269,4.813,12.618,12.618,0,0,0-3.162,7c-.364,3.478.262,5.241,1.819,5.384a30.449,30.449,0,0,0,3.619-2.716q4.786-4.074,17.54-14.628a12.272,12.272,0,0,0-6.4-1.667" transform="translate(0 -347.696)" fill="#c1272d"/><path d="M165.006,361.643H154l-6.465,21.727-3.032-.619,6.3-21.108H143.04l.319-3.05H151.7l2.5-8.386,3.038.572-2.294,7.814h10.388Zm14.714,15.581h-8.672l-.488,4.67a8.8,8.8,0,0,1-8.469,7.624,6.8,6.8,0,0,1-5.2-2.239,6.71,6.71,0,0,1-1.677-5.384,8.794,8.794,0,0,1,8.474-7.671h4.622l1.619-15.486H180.6l-.319,3.05h-7.624l-1.3,12.436h8.672Zm-11.722,0h-4.622a5.348,5.348,0,0,0-5.11,4.67,4.116,4.116,0,0,0,4.139,4.622,5.3,5.3,0,0,0,5.1-4.622Z" transform="translate(-105.042 -349.54)" fill="#c1272d"/><path d="M320.323,364.628H306.076l-6.621,27.779-3.243-.429,6.624-27.35h-7.29l.324-3.1h7.624l1.583-6.48,3.2.429-1.443,6.052h13.818Zm9.124,26.206H317.868a6.731,6.731,0,0,1-5.037-1.953,6.211,6.211,0,0,1-1.563-5.1l.468-4.479h3.1l-.469,4.479c-.254,2.43,1.345,4,3.822,4h11.578Zm.767-18.726H314.442l.314-3h15.772Z" transform="translate(-217.034 -353.096)" fill="#c1272d"/><path d="M458.363,405.862a12.715,12.715,0,0,1-9,3.3l.264-2.523A10.014,10.014,0,0,0,456.695,404a10.651,10.651,0,0,0,3.285-6.909,9.608,9.608,0,0,0-.719-5.007,3.956,3.956,0,0,0-3.761-2.639h-5.318l-5.633,19.718-2.513-.466,5.468-19.252h-5.4l.26-2.484h5.822l2.079-7.259,2.552.466-1.952,6.793h5.007a5.9,5.9,0,0,1,5.508,3.377,11.149,11.149,0,0,1,1.192,6.792,13.285,13.285,0,0,1-4.213,8.734m9.728-23.988h-2.756l.317-3.028h2.756Zm2.157,19.1-2.576.5-1.522-17,2.576-.5Zm2.967-19.1h-2.756l.317-3.028h2.755Z" transform="translate(-324.609 -370.571)" fill="#c1272d"/></g><g transform="translate(134.937 185.912)"><path d="M592.39,370.88h-18.3a40.048,40.048,0,0,1-5.258,12.913l-2.5-1.62c3.167-4.765,5.208-12.436,5.776-17.868l.822-7.862H593.9Zm5.276-19.012-2.418,2.621-10.341-9.1c-4.577,3.669-9.172,7.052-13.789,10.2l-1.76-2.764c5.434-3.669,10.292-7.29,14.621-10.864l2.282.048Zm-6.638,33.4h-3.145l.164-1.572h-11.1l-.179,1.715-3.2.048,1.261-12.055h17.439Zm-1.57-17.344.294-2.811H575.124c-.065.619-.212,1.572-.389,2.811Zm.583-5.575.3-2.859H575.712l-.3,2.859Zm-1.685,18.392.458-4.383h-11.1l-.458,4.383Zm1.413-26.731H577.333l.3-2.906h12.436Zm10.261,23.538h-3.383l3.323-31.782h3.383Zm7.783,5.765-1.847,1.715h-5.575l.349-3.335h3.716l4.071-38.929h3.526Z" transform="translate(-566.336 -341.957)" fill="#c1272d"/><path d="M768.086,413.413c-3.335,5-9.081,8-17.185,8.958l-.045-2.764a27.527,27.527,0,0,0,8.138-2.192,15.572,15.572,0,0,0,6.647-5.241,9.584,9.584,0,0,0,1.745-4.384,6.246,6.246,0,0,0-2.517-6,10.646,10.646,0,0,0-6.567-1.906H744.247l.3-2.859H758.6a12.856,12.856,0,0,1,8.483,2.716,8.756,8.756,0,0,1,3.113,8.053,12.533,12.533,0,0,1-2.112,5.622" transform="translate(-696.985 -382.394)" fill="#c1272d"/><path d="M881.435,371.827h-5.813a29.405,29.405,0,0,0-8.708,5.813,14.862,14.862,0,0,0-4.706,9.005,10.41,10.41,0,0,0,2.883,8.434,20.158,20.158,0,0,0,7.529,5l-1.462,3.05c-8.923-3.526-12.967-9.053-12.185-16.534a17.155,17.155,0,0,1,3.455-8.434,27.86,27.86,0,0,1,6.9-6.337H848.081l.329-3.145h33.354Z" transform="translate(-773.236 -361.583)" fill="#c1272d"/><path d="M1004.22,385.7q-4.238.214-7.941,4.86a26.265,26.265,0,0,0-4.385,8.672l-3.135-.1,3.428-32.782h3.145l-2.526,24.158c3.291-5.051,7.187-7.672,11.638-7.862Zm19.2,9.625-3.168-.238c.2-1,.347-1.953.452-2.954.5-4.765.145-8.672-1.009-11.769-1.53-4.05-4.461-6.1-8.706-6.051l.334-3.192c5.241,0,8.914,2.239,10.971,6.719,1.675,3.574,2.235,8.243,1.642,13.913q-.224,2.144-.516,3.574" transform="translate(-876.542 -359.87)" fill="#c1272d"/><path d="M1162.855,390.178l-2.114,2.907-12.38-8.291c-1.392-.81-3.4-2.144-6.061-4-2.6-2.049-3.787-4.336-3.514-6.957.265-2.525,1.833-4.765,4.668-6.814.153-.1,1.993-1.287,5.61-3.526,3.01-1.906,7.5-4.765,13.481-8.625l1.692,2.954c-2.757,1.763-6.886,4.336-12.443,7.814-1.524.905-3.77,2.335-6.733,4.241a5.788,5.788,0,0,0-2.8,4q-.232,2.216,2.154,4l1.787,1.143Z" transform="translate(-986.686 -351.44)" fill="#c1272d"/><path d="M1254.908,461.863a6.663,6.663,0,0,1-4.573,1.811,5.406,5.406,0,0,1-4.242-1.811,5.472,5.472,0,0,1-1.347-4.431,7.124,7.124,0,0,1,6.895-6.242,5.339,5.339,0,0,1,4.19,1.858,5.4,5.4,0,0,1,1.4,4.383,6.781,6.781,0,0,1-2.322,4.431m-3.517-8.291a4.445,4.445,0,0,0-4.263,3.859,3.45,3.45,0,0,0,3.456,3.86,4.445,4.445,0,0,0,4.263-3.86,3.45,3.45,0,0,0-3.456-3.859" transform="translate(-1064.497 -422.172)" fill="#c1272d"/></g></g></g></svg>