<svg id="グループ_202" data-name="グループ 202" xmlns="http://www.w3.org/2000/svg" xmlns:xlink="http://www.w3.org/1999/xlink" width="18.781" height="18.775" viewBox="0 0 18.781 18.775">
  <defs>
    <clipPath id="clip-path">
      <rect id="長方形_51" data-name="長方形 51" width="18.781" height="18.775" fill="#fff"/>
    </clipPath>
  </defs>
  <g id="グループ_201" data-name="グループ 201" clip-path="url(#clip-path)">
    <path id="パス_214" data-name="パス 214" d="M344.413,4.181a2.327,2.327,0,0,1-.846,1.348c-.281.262-.548.539-.817.805l-4.7-4.7c.112-.1.235-.208.351-.321.231-.226.468-.449.685-.688A2.082,2.082,0,0,1,340.158,0h.477a2.247,2.247,0,0,1,1.232.761q.836.87,1.706,1.707a2.352,2.352,0,0,1,.84,1.347Z" transform="translate(-325.632)" fill="#fff"/>
    <path id="パス_215" data-name="パス 215" d="M68.2,67.032l4.635,4.634-9.54,9.525L58.67,76.569,68.2,67.032" transform="translate(-56.514 -64.569)" fill="#fff"/>
    <path id="パス_216" data-name="パス 216" d="M1.489,352.139,5.848,356.5l-1.25.355q-1.891.539-3.781,1.081a.607.607,0,0,1-.646-.119.59.59,0,0,1-.122-.661c.05-.15.09-.3.134-.456L1.467,352.2c.006-.022.015-.044.022-.064" transform="translate(0 -339.199)" fill="#fff"/>
  </g>
</svg>
