<svg xmlns="http://www.w3.org/2000/svg" width="19.82" height="19.331" viewBox="0 0 19.82 19.331">
  <path id="パス_11" data-name="パス 11" d="M2.115,8.837A2.047,2.047,0,0,1,3.46,9.4q1.748,1.591,3.5,3.182c.374.342.592.331.927-.047Q13.312,6.4,18.743.262a.589.589,0,0,1,.665-.221.548.548,0,0,1,.4.526.831.831,0,0,1-.126.386q-2.287,3.7-4.582,7.39-3.085,4.968-6.169,9.938a2.04,2.04,0,0,1-1.441,1.029A1.813,1.813,0,0,1,5.7,18.635Q3.218,15.613.751,12.581a3,3,0,0,1-.717-1.224,2.088,2.088,0,0,1,2.079-2.52Z" transform="translate(0.015 -0.009)" fill="#c9b772"/>
</svg>
