<svg id="グループ_635" data-name="グループ 635" xmlns="http://www.w3.org/2000/svg" xmlns:xlink="http://www.w3.org/1999/xlink" width="49.626" height="54.104" viewBox="0 0 49.626 54.104">
  <defs>
    <clipPath id="clip-path">
      <rect id="長方形_148" data-name="長方形 148" width="49.626" height="54.104" fill="#135589"/>
    </clipPath>
  </defs>
  <g id="グループ_634" data-name="グループ 634" clip-path="url(#clip-path)">
    <path id="パス_817" data-name="パス 817" d="M12.452,314.642a29.584,29.584,0,0,1,.167-3.782,6.287,6.287,0,0,1,2.671-4.018,2.531,2.531,0,0,0-2.043-1.181c-2.817-.031-5.634-.043-8.45,0a2.668,2.668,0,0,0-2.5,2.557c-.043,1.178-.016,2.358-.019,3.538,0,.189,0,.378,0,.6H.056A2.923,2.923,0,0,1,.009,312c0-1.162-.02-2.324,0-3.485a5.072,5.072,0,0,1,5.171-5.144c2.57-.027,5.141-.02,7.712,0a5.006,5.006,0,0,1,4.367,2.34c5.067-.119,10.034-.112,15.113-.006a4.92,4.92,0,0,1,3.153-2.191,6.867,6.867,0,0,1,1.413-.142c2.43-.014,4.859-.009,7.289-.005a5.113,5.113,0,0,1,5.394,5.406c0,1.178,0,2.355,0,3.58H47.352c0-.329,0-.64,0-.952,0-1.021.018-2.043-.012-3.063a2.709,2.709,0,0,0-2.657-2.683c-2.729-.034-5.458-.021-8.187,0a2.7,2.7,0,0,0-2.156,1.172c.2.172.366.3.521.44a6.572,6.572,0,0,1,2.33,4.8c.035.86,0,1.723-.01,2.585H34.962c0-.81.017-1.62-.01-2.429a4.46,4.46,0,0,0-4.353-4.319q-5.783-.054-11.567,0a4.358,4.358,0,0,0-4.249,3.644,25.781,25.781,0,0,0-.113,3.105Z" transform="translate(0 -260.538)" fill="#135589"/>
    <path id="パス_818" data-name="パス 818" d="M35.414,18.08c-.315-.057-.6-.089-.867-.16a3.346,3.346,0,0,1-2.509-3.214q-.022-5.678,0-11.356A3.332,3.332,0,0,1,35.366.011q8.505-.023,17.011,0A3.351,3.351,0,0,1,55.7,3.356c.007.366,0,.733,0,1.166h.661c4.174,0,8.348.052,12.52-.021a3.564,3.564,0,0,1,3.748,3.758c-.076,3.432-.083,6.868,0,10.3a3.618,3.618,0,0,1-3.406,4.026v5.244c-.213-.111-.376-.191-.534-.279-2.858-1.593-5.712-3.191-8.577-4.77a1.96,1.96,0,0,0-.893-.23c-2.2-.019-4.4-.008-6.6-.011a3.385,3.385,0,0,1-3.683-3.676c0-.244,0-.488,0-.814a19.028,19.028,0,0,1-2.063-.013,5.888,5.888,0,0,0-3.774.983c-2.374,1.409-4.809,2.715-7.219,4.062-.133.074-.273.134-.47.23Zm2.238,1.425c2.159-1.207,4.2-2.355,6.248-3.478a2.071,2.071,0,0,1,.941-.242c2.413-.02,4.826-.008,7.239-.012.956,0,1.374-.4,1.375-1.334q.009-5.415,0-10.83a1.188,1.188,0,0,0-1.368-1.357q-8.216-.007-16.433,0c-.935,0-1.371.43-1.373,1.352q-.009,5.415,0,10.83c0,.937.416,1.332,1.37,1.339.647,0,1.295,0,2,0ZM55.7,6.767V7.4c0,2.359,0,4.718,0,7.078a3.4,3.4,0,0,1-3.543,3.567c-.31,0-.619,0-.973,0V18.7c0,1.245.349,1.593,1.6,1.593,2.342,0,4.684-.009,7.026.011a2.077,2.077,0,0,1,.94.244c1.9,1.035,3.784,2.1,5.674,3.149.16.089.328.164.578.289V20.292c.688,0,1.319,0,1.951,0,.991,0,1.407-.415,1.408-1.415q.005-5.335,0-10.669c0-1.039-.4-1.439-1.435-1.44q-6.1,0-12.2,0Z" transform="translate(-27.506 0)" fill="#135589"/>
    <path id="パス_819" data-name="パス 819" d="M134.676,221.133a6.761,6.761,0,1,1,6.767-6.737,6.753,6.753,0,0,1-6.767,6.737m.005-11.247a4.5,4.5,0,1,0,4.51,4.484,4.506,4.506,0,0,0-4.51-4.484" transform="translate(-109.864 -178.309)" fill="#135589"/>
    <path id="パス_820" data-name="パス 820" d="M253.364,218.9a5.638,5.638,0,1,1,5.643-5.648,5.647,5.647,0,0,1-5.643,5.648m-.027-9a3.373,3.373,0,0,0-3.359,3.367,3.413,3.413,0,0,0,3.411,3.385,3.376,3.376,0,0,0-.053-6.753" transform="translate(-212.766 -178.319)" fill="#135589"/>
    <path id="パス_821" data-name="パス 821" d="M35.316,213.258a5.639,5.639,0,1,1-5.653-5.637,5.646,5.646,0,0,1,5.653,5.637M29.7,209.894a3.341,3.341,0,0,0-3.386,3.324,3.374,3.374,0,0,0,3.35,3.43,3.415,3.415,0,0,0,3.4-3.394,3.375,3.375,0,0,0-3.367-3.359" transform="translate(-20.646 -178.318)" fill="#135589"/>
  </g>
</svg>
