<svg id="グループ_630" data-name="グループ 630" xmlns="http://www.w3.org/2000/svg" xmlns:xlink="http://www.w3.org/1999/xlink" width="88.819" height="60.256" viewBox="0 0 88.819 60.256">
  <defs>
    <clipPath id="clip-path">
      <rect id="長方形_146" data-name="長方形 146" width="60.25" height="60.256" fill="#135589"/>
    </clipPath>
  </defs>
  <g id="グループ_421" data-name="グループ 421">
    <g id="グループ_420" data-name="グループ 420" clip-path="url(#clip-path)">
      <path id="パス_807" data-name="パス 807" d="M54.7,60.256a4.927,4.927,0,0,1-3.228-1.129c-1.028-.885-2.008-1.871-2.956-2.824q-.439-.441-.879-.88-.416-.412-.835-.822c-.963-.945-1.959-1.921-2.859-2.943a5.268,5.268,0,0,1-.933-5.695c.01-.026.232-.632-.073-.947-.979-1.011-1.954-1.984-2.987-3.014l-1.005-1-.55.429c-.2.154-.384.3-.569.445a22.363,22.363,0,0,1-10.312,4.617,27.113,27.113,0,0,1-4.362.366A22.711,22.711,0,0,1,6.872,39.993a22.132,22.132,0,0,1-6.8-14.6A22.869,22.869,0,0,1,8.544,5.365,22.492,22.492,0,0,1,21.4.1,1.656,1.656,0,0,0,21.746.02L21.814,0h3.145c.21.028.421.053.633.079.457.055.929.113,1.385.192A23.3,23.3,0,0,1,42.765,10.278a22.614,22.614,0,0,1,4.05,13.75A23.3,23.3,0,0,1,41.5,38.3c-.068.083-.131.171-.208.276l-.127.174-.186.251.222.22c.287.285.576.565.865.845.652.631,1.325,1.283,1.936,1.96A2.344,2.344,0,0,0,45.8,43a3.127,3.127,0,0,0,.956-.171,4.942,4.942,0,0,1,1.515-.247,5.336,5.336,0,0,1,3.778,1.736c1.38,1.365,2.775,2.762,4.123,4.114q1.181,1.183,2.364,2.365a6.186,6.186,0,0,1,1.713,3.433v1.123a6.607,6.607,0,0,1-1.427,3.1,5.46,5.46,0,0,1-4.118,1.8m-6.647-14.8A2.625,2.625,0,0,0,46.2,49.934c2.451,2.5,4.658,4.7,6.746,6.725a3.335,3.335,0,0,0,1.075.628c.1.043.2.083.263.116l.089.047.1-.006a2.78,2.78,0,0,0,2.668-1.576,2.433,2.433,0,0,0-.484-2.877c-2.408-2.451-4.624-4.667-6.776-6.776a2.6,2.6,0,0,0-1.829-.757M23.346,2.854A20.607,20.607,0,0,0,2.818,23.417,20.36,20.36,0,0,0,8.844,37.948,20.516,20.516,0,0,0,23.4,44.018h.042a20.648,20.648,0,0,0,20.548-20.59A20.7,20.7,0,0,0,23.444,2.854Z" transform="translate(0)" fill="#135589"/>
      <path id="パス_808" data-name="パス 808" d="M173.053,104.493c-.7,0-1.389-.013-2.15-.029a1.387,1.387,0,0,1-1.415-1.434c-.017-3.639-.018-7.485,0-11.431a1.351,1.351,0,0,1,1.4-1.44c.645-.014,1.332-.027,2.024-.027.835,0,1.565.02,2.232.061a4.111,4.111,0,0,1,3.405,2.282,4.182,4.182,0,0,1-.134,4.169c-.063.1-.127.2-.2.308l-.232.363.14.2a4.414,4.414,0,0,1,.892,2.833,4.246,4.246,0,0,1-4.2,4.111c-.535.024-1.11.036-1.757.036m-.693-2.886h.361c.22,0,.437,0,.652.007s.424.007.634.007c.324,0,.591-.008.839-.025a1.39,1.39,0,0,0,1.315-1.432,1.36,1.36,0,0,0-1.214-1.388c-.265-.017-.549-.026-.9-.026-.218,0-.438,0-.659.007s-.444.006-.67.006h-.361Zm.008-5.791h.361c.234,0,.465.005.693.01s.456.01.682.01a9.173,9.173,0,0,0,.926-.04,1.4,1.4,0,0,0-.081-2.752c-.264-.02-.548-.029-.893-.029-.219,0-.439,0-.661.007s-.442.007-.666.007h-.361Z" transform="translate(-138.888 -73.866)" fill="#135589"/>
      <path id="パス_809" data-name="パス 809" d="M105.311,104.563a4.3,4.3,0,0,1-1.98-.467,4.693,4.693,0,0,1-2.73-4.426c-.009-.513-.007-1.038,0-1.545q0-.175,0-.35h.032v-.361c0-.294,0-.589-.009-.883-.01-.624-.019-1.268.017-1.893a4.707,4.707,0,0,1,4.638-4.385l.147,0a4.617,4.617,0,0,1,4.617,4.132,40.27,40.27,0,0,1-.021,6.24c-.21,2.434-2.607,3.94-4.708,3.941Zm.056-11.461a1.909,1.909,0,0,0-1.91,2c-.016,1.513-.016,3.055,0,4.584a1.94,1.94,0,0,0,1.908,2.024,1.977,1.977,0,0,0,1.93-2.044c.009-.523.007-1.054,0-1.567,0-.233,0-.465,0-.7s0-.462,0-.693c0-.514,0-1.046,0-1.571a1.947,1.947,0,0,0-1.9-2.039Z" transform="translate(-82.439 -73.962)" fill="#135589"/>
      <path id="パス_810" data-name="パス 810" d="M41.3,104.486a4.325,4.325,0,0,1-4.089-3.34,3.416,3.416,0,0,1-.047-1.322,1.316,1.316,0,0,1,1.354-1.047h.06a1.413,1.413,0,0,1,1.334,1.193c.007.044.01.089.014.134a2.078,2.078,0,0,0,.029.233,1.482,1.482,0,0,0,1.419,1.29c.032,0,.065,0,.1,0a1.427,1.427,0,0,0,1.337-1.483c.014-1.6.011-3.181.009-4.855q0-.966,0-1.963v-.361h-.361c-.263,0-.52.008-.772.016-.235.007-.466.014-.694.014a6.31,6.31,0,0,1-.8-.043,1.356,1.356,0,0,1-.841-2.253,1.534,1.534,0,0,1,.914-.487c.685-.037,1.416-.056,2.172-.056.622,0,1.263.012,1.958.037.794.029,1.272.606,1.279,1.546.014,1.854.01,3.741.006,5.565l0,.918c0,.154,0,.308,0,.463,0,.584,0,1.188-.037,1.773a4.235,4.235,0,0,1-4.053,4.022c-.095.007-.19.011-.285.011" transform="translate(-30.422 -73.881)" fill="#135589"/>
    </g>
  </g>
  <line id="線_46" data-name="線 46" x2="19.746" transform="translate(52.721 9.112)" fill="none" stroke="#135589" stroke-linecap="round" stroke-width="3"/>
  <line id="線_47" data-name="線 47" x2="27.15" transform="translate(52.743 17.669)" fill="none" stroke="#135589" stroke-linecap="round" stroke-width="3"/>
  <line id="線_48" data-name="線 48" x2="34.555" transform="translate(52.764 26.225)" fill="none" stroke="#135589" stroke-linecap="round" stroke-width="3"/>
</svg>
