<svg id="グループ_419" data-name="グループ 419" xmlns="http://www.w3.org/2000/svg" xmlns:xlink="http://www.w3.org/1999/xlink" width="82.306" height="68.939" viewBox="0 0 82.306 68.939">
  <defs>
    <clipPath id="clip-path">
      <rect id="長方形_145" data-name="長方形 145" width="82.306" height="68.939" fill="#135589"/>
    </clipPath>
  </defs>
  <g id="グループ_418" data-name="グループ 418" clip-path="url(#clip-path)">
    <path id="パス_799" data-name="パス 799" d="M20.9,0c.72.182,1.459.309,2.155.556a8.043,8.043,0,0,1,5.774,7.288,67.683,67.683,0,0,1-.049,8.819,7.662,7.662,0,0,1-2.455,4.929c-.214.219-.234.63-.336.955-.014.046.023.105.02.158-.122,2.566,1.532,3.808,3.567,4.735,1.605.731,3.235,1.411,4.853,2.114a7.182,7.182,0,0,1,4.651,7.109c0,1.118,0,2.236,0,3.452.582,0,1.084,0,1.586,0,2.606.019,3.952,1.593,3.509,4.169-.757,4.4-1.548,8.8-2.325,13.2-.121.685-.23,1.372-.365,2.054A4.431,4.431,0,0,1,37.1,63.172q-13.819.014-27.638,0a3.192,3.192,0,0,1-3.437-2.716c-.235-.933-.472-1.866-.688-2.8-.291-1.268.206-1.9,1.505-1.911,1.9-.012,3.8-.021,5.7.008.542.008.723-.174.812-.708.624-3.747,1.29-7.486,1.938-11.229a4.379,4.379,0,0,1,2.474-3.346.9.9,0,0,0,.476-.595c.038-1.709.022-3.42.022-5.278-.29.178-.486.281-.663.41-.931.677-1.847,1.375-2.786,2.039-1.046.74-1.9.461-2.288-.747-.682-2.109-1.347-4.224-2.053-6.441-.591.249-1.146.477-1.7.714-1.08.465-2.158.937-3.238,1.4A4.6,4.6,0,0,0,2.578,36.5c-.018,5.222.01,10.445-.032,15.667a2.261,2.261,0,0,1-.6,1.455c-.53.521-1.237.245-1.946-.584V35.363a2.377,2.377,0,0,0,.143-.37,7.167,7.167,0,0,1,4.44-5.4c1.645-.707,3.3-1.386,4.927-2.139,1.951-.9,3.642-2.053,3.551-4.566a.671.671,0,0,1,.043-.236.979.979,0,0,0-.354-1.121,7.381,7.381,0,0,1-2.45-4.919,70.419,70.419,0,0,1-.09-8.418A8.27,8.27,0,0,1,16.476.431C17.032.265,17.6.143,18.163,0H20.9M26.62,60.6q5.144,0,10.287,0a1.873,1.873,0,0,0,2.086-1.687q1.344-7.547,2.64-15.1c.16-.93-.015-1.122-.933-1.123q-10.528-.008-21.056,0a1.619,1.619,0,0,0-1.8,1.554q-1.307,7.472-2.61,14.944c-.193,1.11.059,1.413,1.179,1.413q5.1,0,10.207,0M12.712,10.921c0,1.167.067,2.239-.012,3.3-.239,3.187,1.277,5.42,3.766,7.154a5.863,5.863,0,0,0,6.149.018c3.3-2.155,4.284-5.229,3.637-9.021A8.484,8.484,0,0,1,17.613,9.31a5.022,5.022,0,0,1-4.9,1.611M28.654,29.835c-.141.4-.252.7-.349,1-.581,1.807-1.152,3.617-1.741,5.421-.416,1.273-1.224,1.524-2.321.736-.609-.437-1.211-.884-1.819-1.321-.484-.348-.973-.688-1.542-1.09v5.466h15.6c0-1.478.092-2.9-.024-4.31A4.165,4.165,0,0,0,34.011,32.2c-1.731-.835-3.515-1.559-5.357-2.366M12.864,8.243c1.557.44,2.7-.114,3.486-1.736.276-.568.6-1.028,1.289-1.032s1.017.467,1.286,1.033a5.958,5.958,0,0,0,7.018,3.276.725.725,0,0,0,.414-.521A6.025,6.025,0,0,0,22.22,2.989a8.339,8.339,0,0,0-5.593.087,5.59,5.59,0,0,0-3.762,5.167m6.691,21.82c1.222-1.38,2.363-2.765,3.616-4.041a1.869,1.869,0,0,0,.347-2.1,9.244,9.244,0,0,1-8.107-.063c.043.663-.118,1.326.142,1.647,1.258,1.554,2.629,3.016,4,4.558m-1.9,1.717L13.788,27.43c-.356.5-.982,1-.9,1.326.435,1.771,1.046,3.5,1.62,5.318l3.151-2.3m7.507-4.191-3.713,4.194,3.061,2.237a1.363,1.363,0,0,0,.15-.218q.674-2.091,1.344-4.185c.4-1.252.4-1.253-.842-2.029M8.173,58.352A15.31,15.31,0,0,0,8.6,60.057a.879.879,0,0,0,.582.521c1.141.051,2.285.024,3.385.024.041-.791.079-1.5.118-2.25Z" fill="#135589"/>
    <path id="パス_800" data-name="パス 800" d="M215.564,0a4.4,4.4,0,0,1,2.971,3.37,6.368,6.368,0,0,1,.08,1.118q.007,8.96,0,17.92c0,2.872-1.616,4.5-4.458,4.5q-14.183,0-28.366,0c-2.862,0-4.458-1.611-4.476-4.481-.006-1.014.287-2.225-.165-2.984-.432-.724-1.653-.98-2.531-1.433-1.117-.577-2.231-1.16-3.359-1.716a2.68,2.68,0,0,1-1.664-2.526,2.709,2.709,0,0,1,1.692-2.591c1.843-.919,3.664-1.882,5.51-2.8a.8.8,0,0,0,.531-.857c-.035-.829.035-1.663-.018-2.49A4.544,4.544,0,0,1,184.38,0ZM176,13.751c.36.2.583.327.812.445,1.973,1.017,3.934,2.057,5.926,3.034a1.793,1.793,0,0,1,1.166,1.883c-.057,1.122-.019,2.249-.012,3.373.009,1.377.472,1.854,1.818,1.854q14.258,0,28.516,0c1.308,0,1.816-.486,1.817-1.778q.011-9.117,0-18.234c0-1.241-.534-1.755-1.758-1.756q-14.338,0-28.677,0c-1.174,0-1.7.52-1.714,1.713-.015,1.339-.051,2.68.011,4.016a1.9,1.9,0,0,1-1.24,2c-1.972.957-3.905,1.994-5.854,3-.229.118-.452.247-.813.446" transform="translate(-136.32)" fill="#135589"/>
    <path id="パス_802" data-name="パス 802" d="M35.15,204.4c0-1.336-.006-2.671,0-4.007.006-.959.47-1.516,1.255-1.533.813-.017,1.308.557,1.311,1.56q.011,4.007,0,8.014c0,1.012-.49,1.588-1.3,1.576s-1.263-.579-1.268-1.6c-.006-1.336,0-2.671,0-4.007" transform="translate(-27.6 -156.157)" fill="#135589"/>
    <path id="パス_803" data-name="パス 803" d="M133.061,236.89a1.279,1.279,0,1,1,.058-2.557,1.267,1.267,0,0,1,1.243,1.3,1.28,1.28,0,0,1-1.3,1.252" transform="translate(-103.502 -184.013)" fill="#135589"/>
    <path id="パス_804" data-name="パス 804" d="M257.817,32.7c-3.132,0-6.264,0-9.4,0-.922,0-1.395-.392-1.455-1.142a1.207,1.207,0,0,1,1.045-1.381,2.981,2.981,0,0,1,.559-.043q9.275,0,18.55,0c.647,0,1.248.093,1.527.784.387.96-.225,1.779-1.355,1.783-3.159.012-6.317,0-9.476,0" transform="translate(-193.929 -23.658)" fill="#135589"/>
    <path id="パス_805" data-name="パス 805" d="M257.845,56.75c3.132,0,6.264-.006,9.4,0,.965,0,1.472.484,1.431,1.324a1.174,1.174,0,0,1-.986,1.2,1.811,1.811,0,0,1-.4.045q-9.476,0-18.952,0a1.274,1.274,0,0,1-1.4-.955,1.248,1.248,0,0,1,1.355-1.608c3.185-.012,6.371,0,9.556,0" transform="translate(-193.866 -44.562)" fill="#135589"/>
    <path id="パス_806" data-name="パス 806" d="M253.89,85.74c-1.822,0-3.643.007-5.465,0-.951,0-1.436-.428-1.457-1.227-.022-.834.486-1.332,1.449-1.335q5.545-.019,11.09,0a1.273,1.273,0,0,1,1.433,1.287c0,.781-.522,1.268-1.425,1.273-1.875.012-3.75,0-5.625,0" transform="translate(-193.935 -65.307)" fill="#135589"/>
  </g>
</svg>
